<?xml version="1.0" encoding="UTF-8" standalone="no"?>
<svg width="130px" height="42px" viewBox="0 0 130 42" version="1.1" xmlns="http://www.w3.org/2000/svg" xmlns:xlink="http://www.w3.org/1999/xlink" xmlns:sketch="http://www.bohemiancoding.com/sketch/ns">
    <!-- Generator: Sketch 3.2.2 (9983) - http://www.bohemiancoding.com/sketch -->
    <title>logo</title>
    <desc>Created with Sketch.</desc>
    <defs></defs>
    <g id="Page-1" stroke="none" stroke-width="1" fill="none" fill-rule="evenodd" sketch:type="MSPage">
        <g id="home" sketch:type="MSArtboardGroup" transform="translate(-110.000000, -24.000000)" fill="#EB4325">
            <g id="navbar" sketch:type="MSLayerGroup" transform="translate(80.000000, 0.000000)">
                <g id="logo" transform="translate(30.000000, 24.000000)" sketch:type="MSShapeGroup">
                    <path d="M32.7486957,7.82507285 L22.108882,1.19741722 C20.0684472,-0.0283708609 16.7371636,-0.0283708609 14.6972671,1.19741722 L3.68037267,7.82507285 C1.64047619,9.05113907 0,12.0489934 0,14.4883311 L0,27.7903709 C0,30.228596 1.59149068,33.2267285 3.63192547,34.4530728 L14.5853002,41.0807285 C16.6251967,42.3065166 19.866853,42.3065166 21.9070186,41.0807285 L32.7454658,34.4530728 C34.784824,33.2267285 36.0662526,30.228596 36.0662526,27.7903709 L36.0662526,14.4883311 C36.0662526,12.0489934 34.7885921,9.05113907 32.7486957,7.82507285 L32.7486957,7.82507285 Z M32.8364389,26.6444106 C32.8364389,28.6620795 31.8610352,31.1436954 30.1726501,32.1580927 L21.4486542,37.6422914 C21.1291718,37.8358808 20.8059213,37.9604901 20.5157764,38.0258543 C19.0236025,38.4105298 17.3739752,37.7490993 16.5724431,36.3046887 L10.6500414,25.7259735 L5.97703934,28.4693245 C4.28919255,29.4834437 2.69151139,28.6620795 2.69151139,26.6444106 L2.69151139,15.6342914 C2.69151139,13.6155099 4.27573499,11.1350066 5.96331263,10.1206093 L15.2966667,4.63446358 C15.6161491,4.44282119 15.8995652,4.31709934 16.1902484,4.2517351 C17.6818841,3.86817219 19.2529193,4.52849007 20.0552588,5.97401325 L25.820207,16.5521722 L30.1801863,13.8088212 C31.8680331,12.794702 32.8364389,13.6155099 32.8364389,15.6342914 L32.8364389,26.6444106 L32.8364389,26.6444106 Z" id="Fill-1"></path>
                    <path d="M67.4307039,17.8591788 C67.4307039,12.8631258 71.5912422,10.4479868 75.6710352,10.4479868 C78.9428364,10.4479868 82.6587371,11.9886358 83.7899793,16.110755 L79.7508282,17.6928477 C78.6602277,13.6541722 72.3182195,14.2788874 71.8741201,17.8177351 L71.8741201,25.1874834 C72.3182195,28.7263311 78.6602277,29.3510464 79.7508282,25.3123709 L83.8707246,26.8944636 C82.7394824,31.0165828 78.9428364,32.5572318 75.6710352,32.5572318 C71.5912422,32.5572318 67.4307039,30.1420927 67.4307039,25.1460397 L67.4307039,17.8591788" id="Fill-2"></path>
                    <path d="M88.3262526,16.2773642 L85.7410559,13.8207815 C88.0030021,11.2390331 90.6692133,10.406543 93.3348861,10.406543 C97.4146791,10.406543 101.575217,12.6550728 101.575217,17.5262384 L101.575217,31.3498013 C95.3142236,33.7229404 85.1351967,34.2227682 85.1351967,25.062596 C85.1755694,18.2755629 92.5271636,16.9018013 97.1320704,18.9837219 L97.1320704,17.6511258 C96.4454658,13.6956159 90.8710766,13.4461192 88.3262526,16.2773642 L88.3262526,16.2773642 Z M97.1320704,22.8975099 C94.9102277,21.8149669 89.6994617,21.4403046 89.4975983,25.062596 C89.2553623,29.4344901 94.0217598,29.3096026 97.1320704,28.4353907 L97.1320704,22.8975099 L97.1320704,22.8975099 Z" id="Fill-3"></path>
                    <path d="M106.8347,25.3540927 C108.975259,29.1844371 114.590021,29.5176556 114.751511,26.0202517 C114.751511,24.4378808 112.933665,23.980053 111.47971,23.6468344 C108.531159,23.0641192 104.047371,21.8566887 104.047371,16.9849669 C104.047371,12.1969669 108.288654,10.406543 111.843064,10.406543 C114.064907,10.406543 116.609462,11.4059205 118.669814,13.4875629 L116.003602,16.4854172 C113.701284,14.112 108.69265,13.903947 108.450145,16.6103046 C108.288654,18.5256159 110.510497,19.150053 112.24706,19.4415497 C115.599607,20.024543 119.113913,21.3568609 119.154555,25.9370861 C119.154555,34.3059338 106.8347,35.0135364 103.522257,27.5609007 L106.8347,25.3540927" id="Fill-4"></path>
                    <path d="M130,32.4737881 C125.112484,33.2231126 120.951946,31.1000265 120.951946,24.9377086 L120.951946,5.56291391 L125.35499,5.56291391 L125.35499,10.6977616 L129.353768,10.6977616 L129.353768,15.2779868 L125.35499,15.2779868 L125.35499,24.8959868 C125.35499,28.309947 127.576563,28.5182781 130,28.5182781 L130,32.4737881" id="Fill-5"></path>
                    <path d="M62.4430642,19.7483444 L62.4430642,18.1270331 C62.4430642,9.63301987 51.9493996,9.1334702 46.0248447,12.2144901 L46.0248447,32.2649007 L50.3312629,32.2649007 L50.3312629,15.5038411 C52.7536232,14.0880795 57.8674948,14.5044636 57.8674948,18.1684768 L57.8674948,32.2649007 L62.4430642,32.2649007 L62.4430642,24.8729007 L60.4026294,23.6423841 L66.2111801,23.6423841 L66.2111801,19.7483444 L62.4430642,19.7483444" id="Fill-6"></path>
                </g>
            </g>
        </g>
    </g>
</svg>