<?xml version="1.0" standalone="no"?>
<!DOCTYPE svg PUBLIC "-//W3C//DTD SVG 1.1//EN" "http://www.w3.org/Graphics/SVG/1.1/DTD/svg11.dtd" >
<svg xmlns="http://www.w3.org/2000/svg">
<metadata></metadata>
<defs>
<font id="uni_sans_lightregular" horiz-adv-x="1034" >
<font-face units-per-em="2048" ascent="1548" descent="-500" />
<missing-glyph horiz-adv-x="614" />
<glyph unicode="&#xfb01;" horiz-adv-x="946" d="M147 0v1139q0 151 88 234t230 89v-73q-112 -3 -178 -69t-66 -181v-258h230v-74h-230v-807h-74zM651 1380q0 29 21.5 50.5t50.5 21.5t50.5 -21.5t21.5 -50.5t-21.5 -50t-50.5 -21t-50.5 21t-21.5 50zM690 -2v1065h74v-1065h-74z" />
<glyph unicode="&#xfb02;" horiz-adv-x="1011" d="M147 0v1139q0 151 88 234t230 89v-73q-112 -3 -178 -69t-66 -181v-258h230v-74h-230v-807h-74zM686 309v1141h74v-1141q0 -241 209 -241v-74q-138 5 -210.5 84t-72.5 231z" />
<glyph horiz-adv-x="2048" />
<glyph horiz-adv-x="2048" />
<glyph unicode="&#xd;" horiz-adv-x="2048" />
<glyph unicode=" "  horiz-adv-x="614" />
<glyph unicode="&#x09;" horiz-adv-x="614" />
<glyph unicode="&#xa0;" horiz-adv-x="614" />
<glyph unicode="!" horiz-adv-x="552" d="M172 70q0 32 23 54.5t55 22.5t55 -22.5t23 -54.5t-23 -55t-55 -23t-55 23t-23 55zM209 268v1184h80v-1184h-80z" />
<glyph unicode="&#x22;" horiz-adv-x="544" d="M145 1061v389h82q-5 -76 -17 -196.5t-17 -192.5h-48zM334 1061v389h80l-33 -389h-47z" />
<glyph unicode="#" horiz-adv-x="1464" d="M68 475l14 70h332l108 370h-372l16 72h379l135 463h80l-137 -463h378l136 463h82l-140 -463h332l-20 -72h-336l-107 -370h377q-3 -17 -9 -38t-9 -32h-383q-19 -66 -67.5 -231.5t-70.5 -243.5h-77l139 475h-381q-18 -64 -66.5 -230t-70.5 -245h-78l139 475h-323zM492 545 h378l109 370h-379z" />
<glyph unicode="$" horiz-adv-x="1165" d="M78 248l74 31q46 -88 152 -142t237 -65v651q-59 13 -98.5 22.5t-91.5 27t-86.5 36t-71 47.5t-57 63t-33 81.5t-9.5 103.5q4 105 68.5 185t162.5 122t216 51v205h59v-205q332 -6 442 -227q-16 -7 -37 -15t-34 -14q-48 88 -135.5 129t-212.5 49h-23v-598q59 -10 103.5 -20 t97.5 -27.5t91.5 -38t76 -53t59.5 -72t34.5 -94t8.5 -119.5q-10 -106 -78.5 -188.5t-170.5 -127t-222 -52.5v-207h-59v207q-160 11 -284 75t-179 179zM172 1100q-3 -49 8 -89.5t37 -70t56.5 -51t78 -39t89 -29t100.5 -24.5v587q-150 -13 -255 -87t-114 -197zM600 72 q155 11 267 88.5t124 201.5q4 53 -4 96.5t-22.5 74.5t-44 56.5t-56.5 42t-72 31.5t-79 23.5t-88 20.5l-25 4v-639z" />
<glyph unicode="%" horiz-adv-x="1488" d="M84 1079q0 174 78 270.5t205 96.5q133 0 207.5 -97.5t74.5 -273.5q0 -169 -78.5 -268.5t-203.5 -99.5q-136 0 -209.5 95.5t-73.5 276.5zM164 1079q0 -155 49 -225t154 -70q102 0 153 71t51 220q0 295 -206 295q-201 0 -201 -291zM174 -76l1024 1620l66 -43l-1020 -1618z M805 373q0 179 76.5 272.5t205.5 93.5q131 0 206 -98.5t75 -271.5q0 -169 -78.5 -268t-202.5 -99q-137 0 -209.5 95t-72.5 276zM885 373q0 -156 49 -225.5t156 -69.5q202 0 202 291q0 150 -54 223.5t-153 73.5q-103 0 -151.5 -71.5t-48.5 -221.5z" />
<glyph unicode="&#x26;" horiz-adv-x="1251" d="M106 399q0 60 19 113.5t47 93t75.5 80t88 67.5t100.5 62q-43 52 -65.5 80.5t-53.5 75.5t-45 90t-14 86q0 138 99.5 222.5t238.5 84.5q122 0 211.5 -81.5t89.5 -203.5q0 -54 -18.5 -102t-44.5 -82t-70.5 -68t-81 -55.5t-92.5 -50.5l-33 -18l395 -402l119 201l62 -31 l-132 -215l238 -272h-96l-180 202q-98 -131 -202 -197.5t-241 -66.5q-176 0 -295 106.5t-119 280.5zM186 403q0 -147 94 -233t257 -86q203 0 372 244l-10 12l-412 424q-46 -27 -71.5 -43.5t-67 -45.5t-65.5 -55t-49 -60t-36.5 -73.5t-11.5 -83.5zM338 1151q0 -40 14.5 -80.5 t47 -86.5t50 -68t58.5 -68q9 5 40 20.5t43 22t41 23t42.5 26t37.5 27t36 31.5t28 34t23.5 39t13.5 42t6 48q0 96 -64.5 157.5t-164.5 61.5q-104 0 -178 -65t-74 -164z" />
<glyph unicode="'" horiz-adv-x="380" d="M143 1059v391h80q-4 -70 -10 -192t-10 -199h-60z" />
<glyph unicode="(" horiz-adv-x="532" d="M170.5 1015q62.5 311 239.5 566l61 -45q-163 -237 -221.5 -535.5t0.5 -601.5t231 -542q-13 -9 -63 -39q-183 257 -246.5 571.5t-1 625.5z" />
<glyph unicode=")" horiz-adv-x="520" d="M39 1516q2 1 63 38q132 -190 202.5 -423.5t74 -471t-65 -475t-204.5 -430.5l-66 43q171 256 225.5 562t-6 603.5t-223.5 553.5z" />
<glyph unicode="*" horiz-adv-x="847" d="M70 1182q8 30 18 57l309 -100l-4 313h64l-4 -313q38 13 143 45.5t158 50.5l18 -59l-305 -95l199 -260q-27 -21 -48 -39l-196 265q-29 -42 -95.5 -133t-93.5 -130q-10 7 -25.5 20t-21.5 17l197 264z" />
<glyph unicode="+" horiz-adv-x="1214" d="M111 659v78h473v461h75v-461h455v-78h-455v-464h-75v464h-473z" />
<glyph unicode="," horiz-adv-x="499" d="M109 -262l122 377h99q-25 -77 -74.5 -191t-73.5 -186h-73z" />
<glyph unicode="-" horiz-adv-x="735" d="M78 575v78h579v-78h-579z" />
<glyph unicode="." horiz-adv-x="448" d="M141 72q0 32 23 55t55 23t55 -23t23 -55t-23 -55t-55 -23t-55 23t-23 55z" />
<glyph unicode="/" horiz-adv-x="757" d="M45 -27l608 1526l68 -22q-102 -257 -302 -763t-302 -763q-16 6 -39.5 12.5t-32.5 9.5z" />
<glyph unicode="0" horiz-adv-x="1230" d="M115 375v688q0 80 29.5 147.5t79 113.5t115 78t136 47t143.5 15q72 0 142.5 -15t136 -47t115 -78t79 -113.5t29.5 -147.5v-688q0 -99 -45 -178t-118 -126.5t-160.5 -72.5t-178.5 -25q-73 0 -144 15t-136 48t-114.5 79t-79 113.5t-29.5 146.5zM195 375q0 -69 25.5 -124.5 t67 -92t97.5 -60.5t114 -34.5t119 -10.5q60 0 118 10.5t114 34.5t97.5 60.5t67 92t25.5 124.5v688q0 69 -25.5 125t-67 92t-97.5 60t-113.5 34t-118.5 10t-119 -10t-114 -34t-97.5 -60t-67 -92t-25.5 -125v-688z" />
<glyph unicode="1" horiz-adv-x="641" d="M49 1126l307 326h95v-1452h-78v1362l-269 -283q-14 10 -31 25.5t-24 21.5z" />
<glyph unicode="2" horiz-adv-x="1116" d="M70 66l704 700q75 73 115.5 151.5t40.5 149.5q0 128 -104.5 216.5t-274.5 94.5q-132 4 -231 -50.5t-152 -160.5q-18 7 -39 18t-31 15q62 137 172.5 195.5t282.5 60.5q201 -2 328 -109t127 -282q0 -85 -46.5 -176t-132.5 -176l-634 -633h819v-80h-916q-6 15 -15 35.5 t-13 30.5z" />
<glyph unicode="3" horiz-adv-x="1155" d="M66 219l73 35q52 -95 163.5 -145t246.5 -50q111 0 205 35.5t156.5 112.5t62.5 184q0 179 -100.5 272t-280.5 91h-100v69h100q144 0 229.5 68.5t85.5 208.5q0 72 -31.5 129.5t-84.5 92t-116.5 52t-133.5 17.5q-111 0 -205.5 -42.5t-145.5 -121.5l-63 37q53 98 166.5 149 t251.5 51q85 0 162 -22t139.5 -65t99.5 -114.5t37 -162.5q0 -227 -182 -307q252 -91 252 -404q-1 -80 -30 -147.5t-77.5 -115t-113 -81t-136.5 -49.5t-149 -16q-159 0 -286 59.5t-195 179.5z" />
<glyph unicode="4" horiz-adv-x="1101" d="M25 469l798 981h105v-981h121v-70h-121v-399h-80v399h-780zM115 469h735l2 899z" />
<glyph unicode="5" horiz-adv-x="1185" d="M98 221l74 35q51 -89 158 -137.5t233 -48.5q109 0 205.5 40.5t160.5 124t64 193.5v78q0 83 -34 151t-92 111.5t-132.5 67.5t-156.5 24q-115 0 -207 -20.5t-191 -69.5q-5 0 -19.5 -2t-19.5 -2v664h856v-80h-776v-482q188 77 357 74q92 -1 179 -29.5t157.5 -81.5t114 -137 t44.5 -186v-80q-1 -102 -45.5 -187t-116 -139t-162 -84t-186.5 -30q-332 0 -465 233z" />
<glyph unicode="6" horiz-adv-x="1265" d="M129 391v668q0 78 29 144.5t78.5 113.5t116 80t141 48.5t153.5 14.5q154 0 279 -57.5t186 -167.5l-72 -37q-52 88 -159.5 136t-233.5 48q-116 0 -213 -34.5t-161 -110t-64 -180.5v-361q42 60 95 101.5t112 61.5t113.5 28t117.5 8q99 -1 188.5 -27t161.5 -74t115 -126 t43 -174v-103q0 -96 -43 -174t-114.5 -126.5t-161.5 -74.5t-189 -26q-99 -1 -190 24.5t-164.5 74t-118 127t-45.5 175.5zM209 393q0 -105 64 -180.5t161 -110t213 -34.5q84 0 159.5 20.5t136 60t96.5 102.5t36 142v99q0 79 -36 142t-96.5 102.5t-136 60t-159.5 20.5 q-116 0 -213 -34.5t-161 -110t-64 -180.5v-99z" />
<glyph unicode="7" horiz-adv-x="1005" d="M74 1374v76h880l33 -68l-768 -1382h-90l762 1374h-817z" />
<glyph unicode="8" horiz-adv-x="1185" d="M70 391q0 144 71.5 246t206.5 143q-105 35 -158 123t-53 197q1 117 64.5 202.5t160 125.5t209.5 40h39q84 0 160.5 -23.5t138 -68.5t98.5 -116.5t37 -159.5q0 -63 -17.5 -121t-64.5 -112t-118 -79q132 -46 201 -150.5t69 -246.5q-2 -99 -45.5 -181t-114.5 -134 t-159.5 -80.5t-184.5 -28.5h-39q-96 0 -184.5 28.5t-159 80.5t-113.5 134t-44 181zM147 393q0 -86 38.5 -155t101 -110.5t135.5 -63t149 -21.5h39q76 0 149 21.5t135.5 63t101 110.5t38.5 155q0 352 -424 352h-39q-424 0 -424 -352zM213 1100q0 -281 358 -281h39 q359 0 359 281q0 73 -30 130.5t-81.5 92.5t-114.5 53.5t-133 18.5h-39q-70 0 -133 -18.5t-114 -53.5t-81 -92.5t-30 -130.5z" />
<glyph unicode="9" horiz-adv-x="1247" d="M92 956v111q0 96 43 174t114.5 126.5t161.5 74.5t189 26q99 1 190 -24.5t164.5 -74t118 -127t45.5 -175.5v-686q0 -78 -29 -144.5t-78.5 -113.5t-116 -80t-141 -48.5t-153.5 -14.5q-154 0 -279 57.5t-186 167.5l74 37q53 -88 159 -136.5t232 -48.5q85 0 162.5 20.5 t139.5 60t99 103t37 142.5v356q-43 -57 -96.5 -95.5t-112.5 -57t-111.5 -25t-117.5 -6.5q-99 1 -188.5 27t-161.5 74t-115 126t-43 174zM172 958q0 -79 36 -142t96.5 -102.5t136 -60t159.5 -20.5q116 0 213 34.5t161 110t64 180.5v107q0 79 -37 142.5t-99 103t-139.5 60 t-162.5 20.5q-113 0 -208 -35t-157.5 -111t-62.5 -180v-107z" />
<glyph unicode=":" horiz-adv-x="491" d="M164 117q0 32 23 55t55 23t54.5 -23t22.5 -55t-22.5 -55t-54.5 -23t-55 23t-23 55zM164 891q0 32 23 55t55 23t54.5 -23t22.5 -55t-22.5 -55t-54.5 -23t-55 23t-23 55z" />
<glyph unicode=";" horiz-adv-x="507" d="M115 -217l102 340h117l-139 -340h-80zM174 860q0 32 23 55t55 23t55 -23t23 -55t-23 -55t-55 -23t-55 23t-23 55z" />
<glyph unicode="&#x3c;" horiz-adv-x="952" d="M121 584v73l680 406v-88l-611 -354q22 -13 259 -148.5t352 -202.5v-86z" />
<glyph unicode="=" horiz-adv-x="1146" d="M180 444v72h793v-72h-793zM180 727v70h793v-70h-793z" />
<glyph unicode="&#x3e;" horiz-adv-x="983" d="M174 184v82l610 355l-610 354v88l680 -406v-73z" />
<glyph unicode="?" horiz-adv-x="962" d="M63 1298q135 156 359 156q68 0 131.5 -16t120 -49t98.5 -79.5t66.5 -112t23.5 -142.5q-1 -93 -35.5 -169t-94.5 -128t-133 -85t-157 -48q-2 -41 -8 -188t-8 -206h-59l-13 459q115 4 212.5 47.5t159.5 127.5t60 192q-1 78 -33 140.5t-84 101t-116.5 59t-134.5 20.5 q-78 0 -164.5 -37t-144.5 -92zM322 66q0 32 22.5 54.5t54.5 22.5q31 0 52.5 -22.5t21.5 -54.5t-21.5 -54t-52.5 -22q-32 0 -54.5 22t-22.5 54z" />
<glyph unicode="@" horiz-adv-x="1562" d="M102 616q0 150 56.5 284.5t153.5 231t230.5 153t282.5 56.5q187 0 339.5 -76t239.5 -209t87 -296q0 -116 -44 -226.5t-110.5 -186.5t-146 -120.5t-148.5 -40.5q-56 3 -78 40.5t-22 119.5q-58 -76 -136.5 -118t-152.5 -42q-119 0 -184.5 78t-65.5 197q0 81 20 162 t59 153.5t92.5 128.5t126.5 88.5t155 32.5q33 0 67 -11.5t68 -35t59 -67t33 -101.5q4 11 29 79.5t35 94.5h70l-187 -555q-24 -74 -24 -102q0 -29 16 -51.5t55 -22.5q54 0 116 46.5t112.5 117.5t84 164t33.5 178q0 151 -84 271.5t-219 184.5t-291 64q-143 0 -267.5 -54.5 t-209.5 -145.5t-133.5 -212t-48.5 -252q0 -103 32.5 -202.5t90.5 -179.5t138.5 -144.5t176 -98.5t203 -40.5t219.5 29.5q14 -32 29 -56q-122 -43 -240 -39.5t-224.5 38t-196.5 104t-156 158t-103 200.5t-37 231zM473 465q0 -94 52 -153.5t139 -59.5q72 0 142 49t118 121.5 t78 156t30 152.5q0 109 -45.5 169.5t-138.5 60.5q-89 1 -163 -47t-119 -124t-69 -161t-24 -164z" />
<glyph unicode="A" horiz-adv-x="1267" d="M41 0l530 1479h117l533 -1479h-86l-183 504h-649q-26 -78 -88 -252t-88 -252h-86zM332 584h594l-297 835z" />
<glyph unicode="B" horiz-adv-x="1290" d="M176 -2v1454h545q109 0 197 -40.5t142 -123.5t54 -196q0 -93 -37 -174.5t-112 -124.5l-60 -25l68 -14q211 -83 211 -351v-10q-2 -106 -38 -184t-100 -123t-145 -66.5t-182 -21.5h-543zM256 78h465h14q171 0 268 70q101 73 101 247q0 336 -376 336h-7h-465v-653zM256 803 h465q144 0 230.5 72t86.5 215q0 139 -89 213.5t-228 74.5h-465v-575z" />
<glyph unicode="C" horiz-adv-x="1179" d="M115 403v644q0 100 45.5 181.5t120.5 132t168.5 78t193.5 27.5q154 0 281.5 -58t187.5 -171q-13 -6 -35 -18t-37 -19q-54 89 -164.5 137.5t-238.5 48.5q-84 0 -162 -21.5t-141 -62.5t-101 -107t-38 -148v-644q0 -66 25 -122.5t67.5 -95.5t99 -67t120 -41.5t130.5 -13.5 q127 0 238.5 49t166.5 138q12 -6 33.5 -17t36.5 -18q-60 -112 -190.5 -171.5t-284.5 -59.5q-99 0 -191 27t-166.5 77.5t-119.5 132t-45 182.5z" />
<glyph unicode="D" horiz-adv-x="1269" d="M182 0v1450h504q101 0 186 -23.5t152 -70.5t105 -126t38 -183v-646q0 -103 -38 -181.5t-105 -125.5t-152 -70.5t-186 -23.5h-504zM262 80h424q85 0 156 18.5t127 56t87 100.5t31 146v646q0 84 -31 147.5t-87 101t-127 56t-156 18.5h-424v-1290z" />
<glyph unicode="E" horiz-adv-x="1171" d="M182 2v1448h877v-80h-797v-604h735v-82h-735v-602h797v-80h-877z" />
<glyph unicode="F" horiz-adv-x="1118" d="M182 2v1448h865v-80h-785v-633h707v-80h-707v-655h-80z" />
<glyph unicode="G" horiz-adv-x="1337" d="M111 412v632q0 80 29.5 149t79.5 118t117 84t142 52t154 17q153 0 280 -58.5t187 -172.5q-13 -6 -35 -18t-37 -19q-51 94 -159.5 141t-239.5 47q-67 0 -130 -13.5t-119 -41t-98.5 -67.5t-67 -96t-24.5 -122v-632q0 -83 38 -150.5t101 -108.5t141 -63t163 -22t163 22 t141.5 63t101.5 108.5t38 150.5v215h-444v80h524v-295q0 -103 -44.5 -186t-119.5 -134.5t-167.5 -78.5t-192.5 -27t-192.5 27t-166.5 78.5t-118.5 134.5t-44.5 186z" />
<glyph unicode="H" horiz-adv-x="1409" d="M180 0v1450h80v-686h887v686h80v-1450h-80v684h-887v-684h-80z" />
<glyph unicode="I" horiz-adv-x="475" d="M184 0v1448h80v-1448h-80z" />
<glyph unicode="J" horiz-adv-x="1185" d="M25 299q18 2 40.5 8t34.5 8q32 -124 148 -193t260 -69q79 0 152.5 22t133 63.5t95 108.5t35.5 150v973h-484v80h564v-1053q0 -100 -43 -181t-114.5 -131.5t-160 -77.5t-184.5 -27q-111 0 -207.5 34t-170 107.5t-99.5 177.5z" />
<glyph unicode="K" horiz-adv-x="1245" d="M182 2v1448h80v-846q134 131 420 423t420 423h98l-678 -698q105 -114 331 -368t345 -382h-100l-633 692l-203 -202v-490h-80z" />
<glyph unicode="L" horiz-adv-x="1036" d="M184 2v1450h80v-1370h725v-80h-805z" />
<glyph unicode="M" horiz-adv-x="1632" d="M176 0v1450h139l502 -1139l504 1139h135v-1450h-80v1389l-516 -1170h-86l-518 1172v-1391h-80z" />
<glyph unicode="N" horiz-adv-x="1411" d="M182 0v1450h101l839 -1350v1350h80v-1450h-117l-823 1327v-1327h-80z" />
<glyph unicode="O" horiz-adv-x="1396" d="M143 403v644q0 102 47 184.5t126 133.5t176.5 78t203.5 27t203.5 -27t177 -78t127 -133.5t47.5 -184.5v-644q0 -102 -47.5 -185t-127 -134.5t-177 -79t-203.5 -27.5t-203.5 27.5t-176.5 79t-126 134.5t-47 185zM223 403q0 -84 40 -151t107.5 -109t151 -64t174.5 -22 t174.5 22t151 64t108 109t41.5 151v644q0 88 -40.5 156.5t-109 108.5t-152 60.5t-175.5 20.5q-91 -1 -173.5 -22t-150 -61.5t-107.5 -108t-40 -154.5v-644z" />
<glyph unicode="P" horiz-adv-x="1261" d="M184 2v1448h527q110 -1 199.5 -40t144.5 -101.5t85 -141.5q31 -80 31 -165q0 -82 -29 -159q-29 -79 -84 -141t-144.5 -100t-200.5 -39h-449v-561h-80zM264 643h447q93 0 167.5 31.5t120 82.5t69.5 116q24 64 25 130q-1 69 -27 136q-26 65 -71 116t-119 82.5t-165 32.5 h-447v-727z" />
<glyph unicode="Q" horiz-adv-x="1398" d="M145 416v618q0 82 31 152.5t84 119.5t124 84t150.5 51.5t163.5 16.5t163.5 -16.5t150.5 -51.5t124 -84t84 -119.5t31 -152.5v-618q0 -72 -28.5 -143t-71.5 -117l-12 -13q15 -21 52 -65t48 -58q-16 -8 -38.5 -23t-26.5 -17l-95 116q-171 -106 -381 -106 q-106 0 -203.5 27.5t-176.5 79t-126 134.5t-47 185zM225 416q-1 -84 39 -151t107.5 -109t151.5 -64t175 -22q189 0 334 90l-123 162l62 43l119 -156q81 100 81 207v618q0 71 -26.5 129.5t-72 98t-106.5 66.5t-129 39.5t-141 12.5q-91 -1 -173.5 -22t-150 -61.5t-107.5 -108 t-40 -154.5v-618z" />
<glyph unicode="R" horiz-adv-x="1277" d="M182 0v1450h527q100 0 182 -24t145.5 -72t99.5 -127.5t38 -184.5q0 -114 -33.5 -194.5t-97 -126t-144.5 -66t-188 -20.5h-47q80 -101 247 -321.5t240 -313.5h-94l-488 635h-307v-635h-80zM262 705h449q196 0 289.5 77.5t93.5 257.5q0 89 -28 154.5t-80 103.5t-120 56 q-61 16 -138 16h-17h-449v-665z" />
<glyph unicode="S" horiz-adv-x="1218" d="M117 233l71 33q54 -98 173.5 -153.5t254.5 -55.5q103 0 188.5 29t149 98t76.5 170q1 12 1 24q0 28 -5 53q-7 36 -19 64t-34.5 52.5t-44.5 42.5t-56.5 34.5t-61.5 27.5t-69.5 22.5t-71 18t-73.5 16.5q-53 11 -97 23t-94 31t-89 41t-75.5 53.5t-60.5 68.5q-22 37 -36 86 q-11 40 -12 86q0 10 1 20q3 86 44.5 155t109.5 111t151.5 64t175.5 22q158 0 292 -62.5t194 -180.5q-17 -8 -38.5 -17t-33.5 -14q-50 96 -167 149.5t-247 53.5q-78 0 -145.5 -15.5t-124.5 -47.5t-92.5 -88t-40.5 -132q-1 -12 -1 -24q0 -46 16 -86q20 -50 56 -85t91 -63.5 t113.5 -47t131.5 -32.5q60 -12 105.5 -23.5t101 -30.5t95.5 -41t79.5 -54.5t63.5 -70.5q24 -40 37 -92q11 -43 11 -91q0 -11 -1 -23q-4 -88 -47.5 -160t-114 -117t-157 -69t-179.5 -24q-99 0 -194.5 27t-177.5 85t-123 139z" />
<glyph unicode="T" horiz-adv-x="1128" d="M41 1372v80h1046v-80h-483v-1370h-80v1370h-483z" />
<glyph unicode="U" horiz-adv-x="1400" d="M176 418v1032h80v-1032q0 -85 37.5 -153.5t101 -110.5t141 -64t162.5 -22t163 22t142 64t102 110.5t38 153.5v1032h80v-1032q0 -104 -45 -188t-119.5 -136t-167.5 -80t-193 -28t-192.5 28t-166.5 80t-118.5 136t-44.5 188z" />
<glyph unicode="V" horiz-adv-x="1243" d="M25 1450h88l505 -1415q73 208 245.5 691.5t256.5 721.5h86l-522 -1473h-129z" />
<glyph unicode="W" horiz-adv-x="1892" d="M35 1450h82l395 -1419h8l381 1208h84l383 -1208h8l398 1419h81l-425 -1468h-119l-367 1159q-44 -138 -175.5 -550.5t-193.5 -608.5h-118z" />
<glyph unicode="X" horiz-adv-x="1206" d="M66 0l483 723l-479 725h90l436 -655q74 109 222.5 336.5t209.5 318.5h94l-479 -725q71 -105 234 -353t247 -370h-96l-432 666l-434 -666h-96z" />
<glyph unicode="Y" horiz-adv-x="1171" d="M57 1448h93l436 -803l434 803h94l-489 -875v-573h-80v573z" />
<glyph unicode="Z" horiz-adv-x="1153" d="M57 47l920 1329h-877v74h947l43 -45l-922 -1331h893v-74h-969z" />
<glyph unicode="[" horiz-adv-x="481" d="M160 -252v1798h266v-65h-188v-1667h188v-66h-266z" />
<glyph unicode="\" horiz-adv-x="741" d="M-4 1528l70 22l641 -1603l-72 -25z" />
<glyph unicode="]" horiz-adv-x="430" d="M35 -193h184v1668h-184v71h266v-1814h-266v75z" />
<glyph unicode="^" horiz-adv-x="1169" d="M139 911l381 539h74q67 -90 197 -269.5t196 -269.5h-92l-338 480q-142 -208 -326 -480h-92z" />
<glyph unicode="_" horiz-adv-x="1024" d="M20 -55h984v-74h-984v74z" />
<glyph unicode="`" horiz-adv-x="430" d="M51 1448h117l141 -225h-78z" />
<glyph unicode="a" d="M113 328q1 84 33.5 149.5t88 104t124 58t147.5 19.5q165 0 297 -59v164q0 82 -46.5 138.5t-115.5 80t-152 23.5q-150 0 -264 -105q-8 8 -22.5 25.5t-22.5 23.5q119 125 322 125q73 0 139 -19.5t119.5 -57t85 -98t31.5 -136.5v-723q-180 -59 -393 -59h-21q-150 2 -250 97 t-100 249zM184 328q0 -131 79.5 -205t205.5 -76h24q152 0 293 35l17 6v442q-154 62 -301 62q-51 0 -96 -8t-86 -27.5t-70.5 -49.5t-47 -75.5t-18.5 -103.5z" />
<glyph unicode="b" horiz-adv-x="1026" d="M141 41v1409h74v-446q157 71 309 71h5q96 0 180 -35q86 -36 142 -111.5t56 -176.5v-435q0 -103 -56 -180.5t-140 -115t-181 -39.5q-203 0 -389 59zM215 98q133 -45 315 -45q122 0 212 71t89 189v439v5q0 45 -16 85q-17 42 -46 70.5t-68.5 48.5t-83.5 29.5t-91 10.5 q-135 0 -299 -73l-12 -8v-822z" />
<glyph unicode="c" horiz-adv-x="905" d="M119 309v441q0 78 33 141.5t87.5 102t121.5 59t139 20.5q105 0 195 -39.5t139 -115.5l-60 -39q-40 59 -113.5 89.5t-160.5 30.5q-126 0 -216.5 -63.5t-90.5 -181.5v-445q0 -121 90.5 -185.5t216.5 -64.5q95 0 177 41t114 115l67 -33q-43 -92 -142 -144t-216 -52 q-72 0 -139 20.5t-121.5 59t-87.5 102t-33 141.5z" />
<glyph unicode="d" horiz-adv-x="1046" d="M137 307v443q0 101 56 176.5t142 111.5q84 35 180 35h5q161 0 309 -67v444h74v-1403q-199 -63 -389 -63q-57 1 -111 14t-102.5 39.5t-85 63.5t-57.5 90t-21 116zM213 307q-1 -120 87.5 -186t213.5 -66q171 0 315 49v828q-152 67 -311 67q-128 -2 -217 -65.5t-88 -181.5 v-445z" />
<glyph unicode="e" horiz-adv-x="1005" d="M123 311v434q0 78 33 141.5t87.5 102.5t122 59.5t140.5 20.5q72 0 139 -20.5t121.5 -59.5t87.5 -102.5t33 -141.5v-266h-688v-168q-1 -121 88.5 -184.5t218.5 -63.5q89 0 164.5 34t113.5 100l68 -35q-45 -85 -139.5 -129.5t-206.5 -44.5q-99 0 -184 34.5t-142 109.5 t-57 179zM199 547h614v198v5q0 80 -45.5 137.5t-113.5 83.5t-148 26q-129 0 -218.5 -64t-88.5 -183v-203z" />
<glyph unicode="f" horiz-adv-x="536" d="M150 0v1139q0 151 87.5 234t229.5 89v-73q-112 -3 -178 -69t-66 -181v-258h230v-74h-230v-807h-73z" />
<glyph unicode="g" horiz-adv-x="1026" d="M129 307v457q0 101 55 175t137 108.5t179 35.5q98 0 182 -18.5t203 -58.5v-1053q0 -78 -32 -140t-85.5 -98.5t-119 -55.5t-138.5 -19q-94 0 -179.5 29t-142.5 83l45 45q54 -43 131 -67q69 -21 138 -21q8 0 15 1q77 2 144.5 25.5t109.5 80t42 135.5v110q-154 -75 -305 -75 h-5q-95 0 -177 34q-85 36 -141 111t-56 176zM203 307q-1 -118 87 -182.5t214 -67.5q79 1 144 17.5t153 52.5l12 10v813q-59 26 -145 44t-168 18q-79 0 -145 -26t-109.5 -83.5t-42.5 -136.5v-459z" />
<glyph unicode="h" horiz-adv-x="1081" d="M162 0v1450h74v-485q159 75 307 75h10q92 0 173 -34q85 -36 141.5 -111t56.5 -176v-719h-74v719q0 118 -90 182t-215 66q-153 0 -309 -64v-903h-74z" />
<glyph unicode="i" horiz-adv-x="440" d="M145 1364q0 29 21.5 50.5t50.5 21.5t50.5 -21.5t21.5 -50.5t-21.5 -50.5t-50.5 -21.5t-50.5 21.5t-21.5 50.5zM184 -2v1065h74v-1065h-74z" />
<glyph unicode="j" horiz-adv-x="448" d="M-43 -299q231 6 231 254v1108h74v-1108q0 -154 -81 -238t-224 -90v74zM154 1374q0 29 21 50.5t50 21.5t50.5 -21.5t21.5 -50.5t-21.5 -50t-50.5 -21t-50 21t-21 50z" />
<glyph unicode="k" horiz-adv-x="966" d="M160 0v1448h73v-995l590 606h90l-458 -475l458 -584h-88l-422 530l-170 -170v-360h-73z" />
<glyph unicode="l" horiz-adv-x="475" d="M152 309v1141h73v-1141q0 -241 209 -241v-74q-138 5 -210 84t-72 231z" />
<glyph unicode="m" horiz-adv-x="1683" d="M166 0v999q120 86 332 86q107 0 190.5 -32t149.5 -115q64 80 135.5 107.5t169.5 31.5h20q147 0 249 -83q108 -89 108 -251v-743h-76v739q1 9 1 18q0 126 -108 196q-82 54 -187 54q-18 0 -37 -2q-127 -11 -194 -88q-46 -52 -47 -124v-793h-71v793q-2 81 -67 135 q-66 54 -154 70q-50 9 -101 9q-39 1 -81 -5q-94 -12 -156 -52v-950h-76z" />
<glyph unicode="n" horiz-adv-x="1089" d="M164 0v1006q220 77 387 77q97 -2 179.5 -37t138 -109.5t55.5 -176.5v-760h-74v760q0 81 -45.5 139t-111.5 83.5t-142 25.5q-82 0 -168 -18t-145 -44v-946h-74z" />
<glyph unicode="o" horiz-adv-x="1030" d="M133 309v441q0 78 33 141.5t87.5 102.5t122 59.5t140.5 21.5q73 -1 140 -21.5t121.5 -59.5t87 -102.5t32.5 -141.5v-441q0 -78 -32.5 -141.5t-87 -102.5t-121.5 -59.5t-140 -21.5q-73 1 -140.5 21.5t-122 59.5t-87.5 102.5t-33 141.5zM207 309q0 -63 27 -113t71.5 -79.5 t98.5 -44.5t112 -15q57 0 110 15t98 44.5t72 79.5t27 113v441q0 63 -27 112.5t-72 78.5t-98 43.5t-110 14.5q-80 0 -147.5 -24.5t-114.5 -82.5t-47 -142v-441z" />
<glyph unicode="p" d="M143 -371v1387q105 34 191 47.5t198 13.5q73 -1 138.5 -20t120 -56.5t86.5 -101t32 -145.5v-441q0 -102 -56 -178.5t-142 -112.5q-84 -36 -180 -36h-5q-183 4 -309 63v-420h-74zM217 127q158 -66 311 -66q126 2 216.5 66.5t89.5 181.5v445q1 123 -87 185t-215 62 q-193 0 -315 -43v-831z" />
<glyph unicode="q" d="M127 315v441q0 78 32 140.5t86 101.5t120.5 59.5t138.5 21.5q121 0 194.5 -12.5t194.5 -52.5v-1385h-74v428q-148 -70 -309 -73h-5q-96 0 -180 36q-86 38 -142 115.5t-56 179.5zM203 315q-1 -120 88.5 -185t216.5 -67q165 0 311 80v820q-117 41 -315 41q-124 0 -213 -65 t-88 -179v-445z" />
<glyph unicode="r" horiz-adv-x="628" d="M147 0v745q0 126 79 210t202 108q26 5 66 5q31 0 71 -3v-72q-32 3 -58 3q-42 0 -73 -7q-93 -22 -153 -84.5t-60 -159.5v-745h-74z" />
<glyph unicode="s" horiz-adv-x="864" d="M72 180l59 39q121 -164 311 -164h13q99 2 180 62q80 59 80 163q0 48 -16.5 84.5t-41.5 59.5t-62.5 40.5t-69.5 26.5t-74 17q-56 10 -100 21.5t-93.5 34t-82 52t-54 75.5t-21.5 104q0 77 35 137t91 93t127 47q46 9 92 9q25 -1 49 -3q70 -8 133.5 -36t105.5 -73l-45 -54 q-34 38 -86 62.5t-108 32.5q-26 4 -51 4q-31 0 -62 -6q-57 -10 -102 -34.5t-75 -71t-32 -107.5q0 -27 7.5 -51t16.5 -41.5t28 -33.5t32 -26t40.5 -20.5t40.5 -15t44.5 -11.5t41 -9t40.5 -7q319 -58 321 -297q0 -90 -48 -158t-121.5 -101.5t-159.5 -35.5h-13q-108 0 -204 46 q-100 50 -166 146z" />
<glyph unicode="t" horiz-adv-x="563" d="M158 334v1096h73v-390h230v-73h-230v-633q0 -83 47 -141.5t114.5 -83.5t146.5 -25l-21 20v-94q-95 3 -175 38.5t-132.5 110t-52.5 175.5z" />
<glyph unicode="u" horiz-adv-x="1058" d="M152 305v756h73v-756q0 -81 45.5 -139t111.5 -83.5t142 -25.5q82 0 168.5 18.5t145.5 43.5v942h73v-1002q-220 -77 -387 -77q-71 2 -136.5 23t-119 59.5t-85 101t-31.5 139.5z" />
<glyph unicode="v" horiz-adv-x="956" d="M47 1061h80l354 -1018l355 1018h77l-378 -1075h-109q-61 174 -189.5 537.5t-189.5 537.5z" />
<glyph unicode="w" horiz-adv-x="1458" d="M47 1061h76l303 -1028l246 1028h112l250 -1024q212 722 301 1024h76l-317 -1067h-125l-240 1018l-244 -1018h-118z" />
<glyph unicode="x" horiz-adv-x="923" d="M63 0l347 530l-347 531h93l303 -479l303 479h90l-344 -531l344 -530h-90l-303 479l-305 -479h-91z" />
<glyph unicode="y" horiz-adv-x="1062" d="M150 307v752h73v-752q-1 -118 87.5 -182.5t215.5 -67.5q79 1 144 17.5t153 52.5l13 10v922h71v-1106q0 -78 -32 -140t-85.5 -98.5t-119 -55.5t-138.5 -19q-94 0 -179 29t-142 83l45 45q54 -43 130 -67q70 -21 139 -21q8 0 15 1q77 2 144.5 25.5t109.5 80t42 135.5v110 q-154 -75 -306 -75h-5q-95 0 -178 34q-85 36 -141 111t-56 176z" />
<glyph unicode="z" horiz-adv-x="894" d="M49 57l676 934h-637v70h709l30 -49l-677 -940h667v-72h-729z" />
<glyph unicode="{" horiz-adv-x="587" d="M123 608v62q40 6 69 36.5t45 78t23.5 101.5t7.5 118v296q0 58 6.5 98.5t25 75.5t55 52.5t91.5 17.5h62v-69h-55q-31 0 -51.5 -8t-32 -20.5t-17 -37.5t-7 -47.5t-1.5 -63.5v-299q1 -157 -40 -246t-89 -108q16 -12 26 -20.5t31.5 -38.5t34.5 -65t24 -98t11 -140v-301 q0 -84 24.5 -122t96.5 -38h45v-72h-49q-193 0 -193 227v299q0 309 -143 332z" />
<glyph unicode="|" horiz-adv-x="471" d="M199 -344v1888h73v-1888h-73z" />
<glyph unicode="}" horiz-adv-x="571" d="M70 -178h45q72 0 96.5 38t24.5 122v301q0 77 11 140t24 98t34 65t31 38.5t26 20.5q-48 19 -89 108t-40 246v299q0 41 -1 63.5t-7 48t-17 37.5t-31.5 20t-51.5 8h-55v69h61q55 0 91.5 -17.5t55 -52.5t25 -75.5t6.5 -98.5v-296q0 -135 34.5 -228t111.5 -106v-62 q-53 -9 -86.5 -59.5t-45.5 -118t-12 -154.5v-299q0 -227 -192 -227h-49v72z" />
<glyph unicode="~" horiz-adv-x="1103" d="M166 569q91 156 229 156q35 0 74 -14t61 -27.5t60 -38.5q94 -61 147 -61q58 0 100.5 34.5t84.5 96.5l39 -35q-35 -69 -93.5 -114.5t-130.5 -45.5q-85 0 -184 68q-3 2 -20 13t-21 13.5t-19 11t-21 11.5t-19 8.5t-21.5 7.5t-20 4t-22.5 2q-58 0 -99.5 -33t-84.5 -96 q-10 8 -21.5 21t-17.5 18z" />
<glyph unicode="&#xa1;" horiz-adv-x="569" d="M201 983q0 32 23 55t55 23t54.5 -23t22.5 -55t-22.5 -55t-54.5 -23t-55 23t-23 55zM238 -434v1153h81v-1153h-81z" />
<glyph unicode="&#xa2;" horiz-adv-x="942" d="M123 315v433q0 71 28 130t76.5 98t109.5 62.5t130 30.5v188h63v-186q98 -6 179 -46.5t127 -109.5l-60 -38q-69 103 -246 120v-931q210 17 265 155l65 -33q-37 -87 -126 -136.5t-204 -59.5v-187h-63v187q-69 8 -130 32t-109.5 63t-76.5 98t-28 130zM197 315 q-1 -106 75 -168.5t195 -78.5v927q-118 -16 -194.5 -78t-75.5 -165v-437z" />
<glyph unicode="&#xa3;" horiz-adv-x="937" d="M61 0v68h213v659h-213v70h213v276q0 56 11.5 109t40 106t72 92t112.5 63.5t156 24.5q72 0 129.5 -21.5t117.5 -70.5l-51 -51q-83 74 -203 74q-79 0 -141 -28.5t-97 -75.5t-53 -102t-18 -114v-282h338v-70h-338v-659h502v-68h-791z" />
<glyph unicode="&#xa4;" horiz-adv-x="1148" d="M92 725q0 183 127 322q-17 16 -55.5 56t-57.5 58l44 45l108 -112q147 116 324 116q178 0 325 -116q15 14 54.5 56.5t52.5 55.5l43 -45l-111 -114q125 -137 125 -322q0 -183 -127 -322q18 -17 59.5 -57t59.5 -57l-47 -45l-111 112q-145 -114 -323 -114q-88 0 -174.5 28 t-155.5 82q-15 -14 -52 -54.5t-50 -53.5l-44 45l107 110q-121 133 -121 326zM162 723q0 -114 57 -210.5t152.5 -152t206.5 -55.5q171 0 294 122t123 296q0 177 -122.5 299.5t-294.5 122.5q-170 0 -293 -122.5t-123 -299.5z" />
<glyph unicode="&#xa5;" horiz-adv-x="1003" d="M-45 1452h92l436 -823q329 609 443 823h96l-463 -840h305q-6 -37 -14 -71h-332v-127h346q-1 -8 -3.5 -23l-4.5 -27t-4 -20h-334v-344h-74v344h-340l9 70h331v127h-335q1 5 5.5 32.5t6.5 38.5h289z" />
<glyph unicode="&#xa6;" horiz-adv-x="436" d="M180 -274v716h78v-716h-78zM180 750v675h78v-675h-78z" />
<glyph unicode="&#xa7;" horiz-adv-x="1015" d="M123 -59l74 34q19 -59 70 -100.5t114 -58.5t132.5 -12.5t126 29t93.5 75.5t37 119q0 40 -17.5 75t-40.5 59.5t-67 52t-75 43t-87 40.5q-43 20 -69 32t-66 34.5t-64.5 40.5t-53.5 45t-45 54.5t-27 63t-11 74.5q0 90 63 158.5t167 113.5q-91 55 -135.5 113t-44.5 139 q0 71 31 129.5t82.5 95t115 56.5t131.5 20q92 0 178 -39.5t123 -121.5q-15 -7 -34 -20t-31 -19q-34 63 -98.5 95t-143.5 32q-68 0 -130.5 -26t-104.5 -79.5t-42 -122.5q0 -37 15.5 -69.5t39 -56.5t60.5 -48t71.5 -41t80.5 -39q9 -4 14 -6q58 -27 94 -45t85 -51t77.5 -64.5 t49 -77.5t20.5 -98q0 -82 -54.5 -159t-136.5 -123q76 -45 119 -112t43 -134q0 -92 -45 -162.5t-115 -107t-156 -45.5t-166.5 11t-148 73t-98.5 131zM229 645q0 -82 40 -127t118 -84l229 -108q73 39 131 102t58 131q0 52 -30.5 101t-67 78.5t-78.5 52.5l-162 77 q-238 -82 -238 -223z" />
<glyph unicode="&#xa8;" horiz-adv-x="614" d="M43 1391q0 26 18.5 44.5t44.5 18.5t45 -18.5t19 -44.5t-19 -45t-45 -19t-44.5 19t-18.5 45zM412 1391q0 26 18.5 44.5t44.5 18.5t45 -18.5t19 -44.5t-19 -45t-45 -19t-44.5 19t-18.5 45z" />
<glyph unicode="&#xa9;" horiz-adv-x="1626" d="M82 725q0 150 59 287.5t158 236.5t236.5 158t287.5 59t287.5 -59t237 -158t158.5 -236.5t59 -287.5t-59 -287.5t-158.5 -236.5t-237 -158t-287.5 -59t-287.5 59t-236.5 158t-158 236.5t-59 287.5zM152 725q0 -184 89.5 -338.5t243.5 -244t338 -89.5q137 0 261.5 53 t214.5 143t143 214.5t53 261.5t-53 261.5t-143 214.5t-214.5 143t-261.5 53q-184 0 -338 -89.5t-243.5 -244t-89.5 -338.5zM442 571v310q0 78 33 141.5t87.5 102t121.5 59t139 20.5q105 0 195 -39.5t139 -115.5l-59 -39q-40 59 -114 89.5t-161 30.5q-126 0 -216.5 -63.5 t-90.5 -181.5v-314q0 -82 45.5 -140t113 -83.5t148.5 -25.5q95 0 177 41t114 114l68 -33q-43 -92 -142.5 -144t-216.5 -52q-72 0 -139 20.5t-121.5 59t-87.5 102t-33 141.5z" />
<glyph unicode="&#xaa;" horiz-adv-x="677" d="M63 981q1 56 23.5 99t60.5 67.5t84 36.5t99 12q89 0 176 -37v90q0 68 -53.5 102.5t-130.5 34.5q-47 0 -95 -17.5t-82 -49.5l-49 45q92 92 230 92q103 0 177.5 -55.5t74.5 -155.5v-459q-124 -39 -279 -36q-101 2 -168.5 65t-67.5 166zM135 981q0 -76 48 -122t120 -48 q97 0 203 20v265q-94 32 -180 32q-189 0 -191 -147z" />
<glyph unicode="&#xab;" horiz-adv-x="784" d="M96 604l262 389q14 -8 35 -22t29 -19l-236 -348q158 -237 234 -348q-15 -8 -32.5 -20t-29.5 -19zM350 604l262 389q14 -8 35 -22t29 -19l-240 -348q10 -15 238 -348q-15 -8 -32.5 -20t-29.5 -19z" />
<glyph unicode="&#xac;" horiz-adv-x="1132" d="M80 725v72h936v-428h-72v356h-864z" />
<glyph unicode="&#xad;" horiz-adv-x="681" d="M109 514v76h464v-76h-464z" />
<glyph unicode="&#xae;" horiz-adv-x="1607" d="M68 725q0 150 59 287.5t158 236.5t236.5 158t287.5 59t287.5 -59t236.5 -158t158 -236.5t59 -287.5t-59 -287.5t-158 -236.5t-236.5 -158t-287.5 -59t-287.5 59t-236.5 158t-158 236.5t-59 287.5zM139 725q0 -137 53 -261t142.5 -213.5t213.5 -142.5t261 -53t261 53 t213.5 142.5t142.5 213.5t53 261t-53 261t-142.5 213.5t-213.5 142.5t-261 53t-261 -53t-213.5 -142.5t-142.5 -213.5t-53 -261zM549 309v842h293q133 0 207.5 -68t74.5 -172q0 -107 -64.5 -171t-166.5 -83q38 -53 252 -348h-82l-256 348h-189v-348h-69zM618 723h162 q44 0 79 3.5t73 15.5t63 32t41.5 55t16.5 82q0 88 -64 131t-153 43h-218v-362z" />
<glyph unicode="&#xaf;" horiz-adv-x="524" d="M-4 1364v78h500v-78h-500z" />
<glyph unicode="&#xb0;" horiz-adv-x="714" d="M100 1206q0 104 75 178t179 74t179 -74t75 -178q0 -106 -75 -181t-179 -75t-179 75t-75 181zM166 1204q0 -80 55 -136t133 -56t133.5 56.5t55.5 135.5q0 80 -55.5 136.5t-133.5 56.5t-133 -56.5t-55 -136.5z" />
<glyph unicode="&#xb1;" horiz-adv-x="1161" d="M154 801v71h385v367h71v-367h400v-71h-400v-373h-71v373h-385zM162 215v70h839v-70h-839z" />
<glyph unicode="&#xb2;" horiz-adv-x="692" d="M55 651q73 69 212 205t196 191q44 44 70 104.5t10 112.5q-27 59 -84.5 88t-120.5 28t-123 -24q-66 -29 -94 -76q-14 5 -36.5 16t-23.5 11q21 38 59.5 69.5t80.5 46.5h-2q54 19 114.5 22t118 -10t105 -51t71.5 -96q25 -74 -2 -153t-90 -134l-352 -335h457v-64h-547 q-3 7 -8.5 23t-10.5 26z" />
<glyph unicode="&#xb3;" horiz-adv-x="706" d="M70 760l53 26q26 -52 87 -81.5t126 -32.5q109 -7 188 57q56 45 56 121q0 91 -57 135t-146 39h-41v51h41q32 0 69.5 14t61.5 37q41 42 39.5 97.5t-37.5 99.5q-57 63 -160 63q-64 0 -117 -23.5t-81 -72.5l-50 27q32 61 100 92t138 35q59 3 117.5 -17.5t95.5 -60.5 q38 -40 52 -94.5t-2.5 -109t-61.5 -89.5l-31 -16q75 -25 111 -98t20.5 -154t-76.5 -127q-44 -37 -106.5 -55t-126.5 -15h2q-85 5 -158.5 44t-105.5 108z" />
<glyph unicode="&#xb4;" horiz-adv-x="450" d="M129 1204l129 246h113l-170 -246h-72z" />
<glyph unicode="&#xb5;" horiz-adv-x="1028" d="M141 -446v1509h78v-674q0 -47 6.5 -89.5t24 -86.5t45.5 -75.5t74.5 -51.5t107.5 -20q154 0 251 104.5t97 302.5v590h78l6 -1063h-73l-5 211q-44 -100 -143 -157.5t-211 -57.5q-90 0 -153 31.5t-107 109.5v-583h-76z" />
<glyph unicode="&#xb6;" horiz-adv-x="1128" d="M59 1012q0 84 30.5 161t88 139.5t151.5 100t210 37.5h444v-1688h-68v1633h-307v-1633h-69v824q-112 0 -205 36.5t-152 97t-91 136t-32 156.5z" />
<glyph unicode="&#xb7;" horiz-adv-x="532" d="M188 651q0 32 23 55t55 23t55 -23t23 -55t-23 -55t-55 -23t-55 23t-23 55z" />
<glyph unicode="&#xb8;" horiz-adv-x="499" d="M84 -334l10 47q54 -22 123 -22q49 0 91 24.5t42 73.5q0 47 -37.5 69.5t-89.5 22.5q-44 0 -69 -10l-7 6q19 30 50 76t43 65h57l-59 -92q79 17 131 -30t49 -107q-3 -57 -40 -96.5t-88 -52.5t-107.5 -7t-98.5 33z" />
<glyph unicode="&#xb9;" horiz-adv-x="577" d="M125 1237l190 215h74v-827h-70v735l-141 -164z" />
<glyph unicode="&#xba;" horiz-adv-x="745" d="M74 973v237q0 111 88 173.5t205 62.5t204.5 -62.5t87.5 -173.5v-237q0 -111 -87.5 -173.5t-204.5 -62.5t-205 62.5t-88 173.5zM143 979q0 -89 66.5 -131.5t157.5 -42.5t157 42.5t66 131.5v225q0 89 -66 131.5t-157 42.5t-157.5 -42.5t-66.5 -131.5v-225z" />
<glyph unicode="&#xbb;" horiz-adv-x="788" d="M125 256l240 348q-10 15 -238 348q15 8 32 20t29 19l263 -387l-263 -389q-14 8 -34.5 22t-28.5 19zM375 256l239 348q-47 71 -237 348q15 8 32 20t29 19l262 -387l-262 -389q-14 8 -34.5 22t-28.5 19z" />
<glyph unicode="&#xbc;" horiz-adv-x="1394" d="M70 1237l190 215h70v-827h-66v735l-143 -162zM174 -6l913 1497q14 -8 32 -20t26 -17l-916 -1495zM688 270l445 566h94v-572h67v-57h-67v-207h-66v207h-432zM760 264h401l6 514z" />
<glyph unicode="&#xbd;" horiz-adv-x="1556" d="M90 1237l191 215h69v-827h-65v735l-144 -162zM201 -6l913 1497q14 -8 31.5 -20t25.5 -17l-915 -1495zM883 49q70 66 207 208t200 202q62 59 78 112t-4 107q-33 76 -110 102t-155.5 -0.5t-121.5 -89.5q-3 1 -66 29q22 38 60 70t80 47h-2q52 20 109 23t110.5 -11t98.5 -52 t69 -96q25 -74 -2.5 -152.5t-90.5 -133.5l-344 -346h449v-68h-547q-3 9 -8.5 24t-9.5 25z" />
<glyph unicode="&#xbe;" horiz-adv-x="1556" d="M113 760l53 26q26 -52 87 -81.5t126 -32.5q109 -7 188 57q56 45 56 121q0 91 -57 135t-146 39h-41v51h41q32 0 69.5 14t61.5 37q41 42 39.5 97.5t-37.5 99.5q-57 63 -160 63q-64 0 -117 -23.5t-81 -72.5l-50 27q32 61 100 92t138 35q59 3 117.5 -17.5t95.5 -60.5 q38 -40 52 -94.5t-2.5 -109t-61.5 -89.5l-31 -16q75 -25 111 -98t20.5 -154t-76.5 -127q-44 -37 -106.5 -55t-126.5 -15h2q-85 5 -158.5 44t-105.5 108zM369 -6l913 1497q14 -8 30.5 -20t24.5 -17l-915 -1495zM825 270l445 566h94v-572h68v-57h-68v-207h-66v207h-432z M897 264h401l7 514z" />
<glyph unicode="&#xbf;" horiz-adv-x="978" d="M80 4q1 93 35.5 169t94.5 128t133 85t157 48q2 42 8 188.5t8 204.5h59l13 -458q-115 -4 -212.5 -47.5t-159.5 -127.5t-60 -192q1 -78 33 -140.5t84 -101t116.5 -59t134.5 -20.5q78 0 165 37t145 92l45 -50q-134 -155 -359 -155q-68 0 -131.5 16t-120 49t-98.5 79.5 t-66.5 112t-23.5 142.5zM469 993q0 32 21.5 54t52.5 22q32 0 55 -22t23 -54t-23 -55t-55 -23q-31 0 -52.5 23t-21.5 55z" />
<glyph unicode="&#xc0;" horiz-adv-x="1267" d="M41 0l530 1479h117l533 -1479h-86l-183 504h-649q-26 -78 -88 -252t-88 -252h-86zM332 584h594l-297 835zM428 1780h117l141 -226h-78z" />
<glyph unicode="&#xc1;" horiz-adv-x="1267" d="M41 0l530 1479h117l533 -1479h-86l-183 504h-649q-26 -78 -88 -252t-88 -252h-86zM332 584h594l-297 835zM569 1546l129 246h113l-170 -246h-72z" />
<glyph unicode="&#xc2;" horiz-adv-x="1267" d="M41 0l530 1479h117l533 -1479h-86l-183 504h-649q-26 -78 -88 -252t-88 -252h-86zM332 584h594l-297 835zM381 1524l201 223h90l200 -223h-75l-172 176l-166 -176h-78z" />
<glyph unicode="&#xc3;" horiz-adv-x="1267" d="M41 0l530 1479h117l533 -1479h-86l-183 504h-649q-26 -78 -88 -252t-88 -252h-86zM332 584h594l-297 835zM424 1585q13 50 46 75.5t77 25.5q27 0 82.5 -28t85.5 -28q50 0 71 47l43 -16q-10 -45 -43 -73.5t-69 -28.5q-32 0 -91.5 27.5t-88.5 27.5q-46 0 -70 -53z" />
<glyph unicode="&#xc4;" horiz-adv-x="1267" d="M41 0l530 1479h117l533 -1479h-86l-183 504h-649q-26 -78 -88 -252t-88 -252h-86zM332 584h594l-297 835zM418 1608q0 26 16.5 43.5t40.5 17.5q22 0 38.5 -17.5t16.5 -43.5q0 -25 -16.5 -43.5t-38.5 -18.5q-23 0 -40 18.5t-17 43.5zM741 1608q0 26 16.5 43.5t39.5 17.5 t39 -17.5t16 -43.5q0 -25 -16 -43.5t-39 -18.5t-39.5 18.5t-16.5 43.5z" />
<glyph unicode="&#xc5;" horiz-adv-x="1267" d="M41 0l530 1479h117l533 -1479h-86l-183 504h-649q-26 -78 -88 -252t-88 -252h-86zM332 584h594l-297 835zM461 1692q0 71 51 122.5t121 51.5q69 0 118.5 -53t49.5 -123q0 -68 -50 -120t-118 -52q-70 0 -121 51.5t-51 122.5zM522 1690q0 -46 32.5 -78.5t76.5 -32.5 q45 0 76.5 34t31.5 79t-31.5 78.5t-76.5 33.5t-77 -34.5t-32 -79.5z" />
<glyph unicode="&#xc6;" horiz-adv-x="1562" d="M10 -2l729 1452h764v-76h-622v-631h559v-77h-559v-592h622v-74h-698v504h-451q-40 -79 -128 -253t-128 -253h-88zM391 580h414v802l-19 2z" />
<glyph unicode="&#xc7;" horiz-adv-x="1179" d="M115 403v644q0 100 45.5 181.5t120.5 132t168.5 78t193.5 27.5q154 0 281.5 -58t187.5 -171q-13 -6 -35 -18t-37 -19q-54 89 -164.5 137.5t-238.5 48.5q-84 0 -162 -21.5t-141 -62.5t-101 -107t-38 -148v-644q0 -66 25 -122.5t67.5 -95.5t99 -67t120 -41.5t130.5 -13.5 q127 0 238.5 49t166.5 138l70 -35q-60 -112 -190.5 -171.5t-284.5 -59.5h-4l-35 -56q79 17 131 -30t49 -107q-3 -57 -40 -96.5t-88 -52.5t-107.5 -7t-98.5 33l11 47q54 -22 123 -22q49 0 91 24.5t42 73.5q0 47 -37.5 69.5t-89.5 22.5q-45 0 -70 -10l-6 6q38 61 70 107 q-91 7 -173 37t-147.5 81t-104 128.5t-38.5 170.5z" />
<glyph unicode="&#xc8;" horiz-adv-x="1171" d="M182 2v1448h877v-80h-797v-604h735v-82h-735v-602h797v-80h-877zM432 1757h117l141 -225h-78z" />
<glyph unicode="&#xc9;" horiz-adv-x="1171" d="M182 2v1448h877v-80h-797v-604h735v-82h-735v-602h797v-80h-877zM582 1538l129 246h112l-170 -246h-71z" />
<glyph unicode="&#xca;" horiz-adv-x="1171" d="M182 2v1448h877v-80h-797v-604h735v-82h-735v-602h797v-80h-877zM387 1524l201 223h90l201 -223h-82l-166 174l-162 -174h-82z" />
<glyph unicode="&#xcb;" horiz-adv-x="1171" d="M182 2v1448h877v-80h-797v-604h735v-82h-735v-602h797v-80h-877zM383 1616q0 26 18.5 44.5t44.5 18.5t45 -18.5t19 -44.5t-19 -45t-45 -19t-44.5 19t-18.5 45zM752 1616q0 26 18.5 44.5t44.5 18.5t45 -18.5t19 -44.5t-19 -45t-45 -19t-44.5 19t-18.5 45z" />
<glyph unicode="&#xcc;" horiz-adv-x="475" d="M25 1759h116l135 -213h-77zM184 0v1448h80v-1448h-80z" />
<glyph unicode="&#xcd;" horiz-adv-x="475" d="M172 1534l129 246h113l-170 -246h-72zM184 0v1448h80v-1448h-80z" />
<glyph unicode="&#xce;" horiz-adv-x="475" d="M-12 1526l200 223h91l200 -223h-86l-162 166l-159 -166h-84zM184 0v1448h80v-1448h-80z" />
<glyph unicode="&#xcf;" horiz-adv-x="475" d="M-18 1624q0 26 18.5 45t44.5 19t45 -19t19 -45t-19 -44.5t-45 -18.5t-44.5 18.5t-18.5 44.5zM184 0v1448h80v-1448h-80zM350 1624q0 26 19 45t45 19t44.5 -19t18.5 -45t-18.5 -44.5t-44.5 -18.5t-45 18.5t-19 44.5z" />
<glyph unicode="&#xd0;" horiz-adv-x="1255" d="M39 682v74h129v694h463q100 0 192 -27t166.5 -77.5t119 -133.5t44.5 -186v-604q0 -102 -44.5 -184.5t-118.5 -133t-166.5 -77.5t-192.5 -27h-463v682h-129zM248 80h383q85 0 163 21.5t141 63t100.5 108t37.5 149.5v604q0 84 -37.5 151t-101 108t-141 63t-162.5 22h-383 v-614h256v-74h-256v-602z" />
<glyph unicode="&#xd1;" horiz-adv-x="1411" d="M182 0v1450h101l839 -1350v1350h80v-1450h-117l-823 1327v-1327h-80zM461 1577q14 51 52.5 76.5t88.5 25.5q31 0 94.5 -28.5t98.5 -28.5q56 0 84 51l47 -18q-12 -46 -49.5 -76.5t-79.5 -30.5q-37 0 -104 30t-101 30q-54 0 -82 -58z" />
<glyph unicode="&#xd2;" horiz-adv-x="1396" d="M143 403v644q0 102 47 184.5t126 133.5t176.5 78t203.5 27t203.5 -27t177 -78t127 -133.5t47.5 -184.5v-644q0 -102 -47.5 -185t-127 -134.5t-177 -79t-203.5 -27.5t-203.5 27.5t-176.5 79t-126 134.5t-47 185zM223 403q0 -84 40 -151t107.5 -109t151 -64t174.5 -22 t174.5 22t151 64t108 109t41.5 151v644q0 88 -40.5 156.5t-109 108.5t-152 60.5t-175.5 20.5q-91 -1 -173.5 -22t-150 -61.5t-107.5 -108t-40 -154.5v-644zM477 1772h117l141 -226h-78z" />
<glyph unicode="&#xd3;" horiz-adv-x="1396" d="M143 403v644q0 102 47 184.5t126 133.5t176.5 78t203.5 27t203.5 -27t177 -78t127 -133.5t47.5 -184.5v-644q0 -102 -47.5 -185t-127 -134.5t-177 -79t-203.5 -27.5t-203.5 27.5t-176.5 79t-126 134.5t-47 185zM223 403q0 -84 40 -151t107.5 -109t151 -64t174.5 -22 t174.5 22t151 64t108 109t41.5 151v644q0 88 -40.5 156.5t-109 108.5t-152 60.5t-175.5 20.5q-91 -1 -173.5 -22t-150 -61.5t-107.5 -108t-40 -154.5v-644zM668 1544l129 246h112l-170 -246h-71z" />
<glyph unicode="&#xd4;" horiz-adv-x="1396" d="M143 403v644q0 102 47 184.5t126 133.5t176.5 78t203.5 27t203.5 -27t177 -78t127 -133.5t47.5 -184.5v-644q0 -102 -47.5 -185t-127 -134.5t-177 -79t-203.5 -27.5t-203.5 27.5t-176.5 79t-126 134.5t-47 185zM223 403q0 -84 40 -151t107.5 -109t151 -64t174.5 -22 t174.5 22t151 64t108 109t41.5 151v644q0 88 -40.5 156.5t-109 108.5t-152 60.5t-175.5 20.5q-91 -1 -173.5 -22t-150 -61.5t-107.5 -108t-40 -154.5v-644zM461 1530l201 223h90l200 -223h-80l-167 172l-160 -172h-84z" />
<glyph unicode="&#xd5;" horiz-adv-x="1396" d="M143 403v644q0 102 47 184.5t126 133.5t176.5 78t203.5 27t203.5 -27t177 -78t127 -133.5t47.5 -184.5v-644q0 -102 -47.5 -185t-127 -134.5t-177 -79t-203.5 -27.5t-203.5 27.5t-176.5 79t-126 134.5t-47 185zM223 403q0 -84 40 -151t107.5 -109t151 -64t174.5 -22 t174.5 22t151 64t108 109t41.5 151v644q0 88 -40.5 156.5t-109 108.5t-152 60.5t-175.5 20.5q-91 -1 -173.5 -22t-150 -61.5t-107.5 -108t-40 -154.5v-644zM512 1573q11 47 44.5 70.5t76.5 23.5q27 0 83 -25.5t85 -25.5q49 0 71 45l43 -16q-10 -42 -43 -70.5t-69 -28.5 q-31 0 -90 28t-88 28q-48 0 -70 -54z" />
<glyph unicode="&#xd6;" horiz-adv-x="1396" d="M143 403v644q0 102 47 184.5t126 133.5t176.5 78t203.5 27t203.5 -27t177 -78t127 -133.5t47.5 -184.5v-644q0 -102 -47.5 -185t-127 -134.5t-177 -79t-203.5 -27.5t-203.5 27.5t-176.5 79t-126 134.5t-47 185zM223 403q0 -84 40 -151t107.5 -109t151 -64t174.5 -22 t174.5 22t151 64t108 109t41.5 151v644q0 88 -40.5 156.5t-109 108.5t-152 60.5t-175.5 20.5q-91 -1 -173.5 -22t-150 -61.5t-107.5 -108t-40 -154.5v-644zM463 1604q0 26 18.5 44.5t44.5 18.5t45 -18.5t19 -44.5t-19 -45t-45 -19t-44.5 19t-18.5 45zM831 1604q0 26 19 44.5 t45 18.5t44.5 -18.5t18.5 -44.5t-18.5 -45t-44.5 -19t-45 19t-19 45z" />
<glyph unicode="&#xd7;" horiz-adv-x="1148" d="M195 1026l55 53l334 -334l325 326l56 -53l-328 -326l321 -321l-53 -56l-321 322l-330 -330l-53 55l327 328z" />
<glyph unicode="&#xd8;" horiz-adv-x="1396" d="M143 408v636q0 82 31 152.5t84 119.5t124 84t150.5 51.5t163.5 16.5q120 0 244 -38l61 145q2 -1 66 -23l-61 -149q112 -57 178.5 -148.5t66.5 -210.5v-636q0 -102 -47.5 -185t-127 -134.5t-177 -79t-203.5 -27.5q-109 0 -237 38l-60 -151q-6 2 -67 20l61 158 q-116 59 -183 150t-67 211zM223 408q0 -179 199 -291l487 1243q-115 31 -215 31q-72 -1 -139.5 -14t-128 -40.5t-105.5 -67t-71.5 -97.5t-26.5 -128v-636zM489 92q112 -31 207 -31q72 0 140 13.5t128.5 42t106.5 69t72.5 98t27.5 124.5v636q0 183 -194 289z" />
<glyph unicode="&#xd9;" horiz-adv-x="1400" d="M176 418v1032h80v-1032q0 -85 37.5 -153.5t101 -110.5t141 -64t162.5 -22t163 22t142 64t102 110.5t38 153.5v1032h80v-1032q0 -104 -45 -188t-119.5 -136t-167.5 -80t-193 -28t-192.5 28t-166.5 80t-118.5 136t-44.5 188zM500 1749h116l142 -225h-78z" />
<glyph unicode="&#xda;" horiz-adv-x="1400" d="M176 418v1032h80v-1032q0 -85 37.5 -153.5t101 -110.5t141 -64t162.5 -22t163 22t142 64t102 110.5t38 153.5v1032h80v-1032q0 -104 -45 -188t-119.5 -136t-167.5 -80t-193 -28t-192.5 28t-166.5 80t-118.5 136t-44.5 188zM629 1526l129 246h112l-170 -246h-71z" />
<glyph unicode="&#xdb;" horiz-adv-x="1400" d="M176 418v1032h80v-1032q0 -85 37.5 -153.5t101 -110.5t141 -64t162.5 -22t163 22t142 64t102 110.5t38 153.5v1032h80v-1032q0 -104 -45 -188t-119.5 -136t-167.5 -80t-193 -28t-192.5 28t-166.5 80t-118.5 136t-44.5 188zM455 1532l200 223h90l201 -223h-76l-172 176 l-166 -176h-77z" />
<glyph unicode="&#xdc;" horiz-adv-x="1400" d="M176 418v1032h80v-1032q0 -85 37.5 -153.5t101 -110.5t141 -64t162.5 -22t163 22t142 64t102 110.5t38 153.5v1032h80v-1032q0 -104 -45 -188t-119.5 -136t-167.5 -80t-193 -28t-192.5 28t-166.5 80t-118.5 136t-44.5 188zM459 1612q0 26 18.5 44.5t44.5 18.5t45 -18.5 t19 -44.5t-19 -45t-45 -19t-44.5 19t-18.5 45zM827 1612q0 26 19 44.5t45 18.5t44.5 -18.5t18.5 -44.5t-18.5 -45t-44.5 -19t-45 19t-19 45z" />
<glyph unicode="&#xdd;" horiz-adv-x="1171" d="M57 1448h93l436 -803l434 803h94l-489 -875v-573h-80v573zM543 1526l129 246h112l-170 -246h-71z" />
<glyph unicode="&#xde;" horiz-adv-x="1097" d="M180 0v1454h82v-299q128 16 213 16q267 0 408 -108.5t141 -314.5q0 -93 -33 -167t-87 -120.5t-129.5 -77t-155 -43t-168.5 -12.5h-101q1 17 5 40.5t5 37.5h84q75 0 140.5 8.5t133 31.5t115.5 60t78.5 99t30.5 143q0 83 -30 146t-77 99.5t-112 59.5t-126.5 31t-129.5 8 q-109 0 -205 -17v-1075h-82z" />
<glyph unicode="&#xdf;" horiz-adv-x="1173" d="M145 -2v1122q0 115 65 201.5t162.5 128t209.5 41.5q66 0 129 -14t119 -43t98.5 -71t67 -101t24.5 -129q0 -99 -48.5 -187t-148.5 -145q264 -93 264 -377q-2 -82 -31.5 -153.5t-79.5 -123.5t-115.5 -89t-140 -55t-151.5 -17q-104 3 -225 55q0 17 1 43.5t1 40.5 q49 -20 114.5 -38t106.5 -19q112 -2 211 39t163.5 125t64.5 194q0 169 -106.5 253.5t-278.5 82.5h-213v74h213q136 0 227.5 78t91.5 219q0 74 -31 131t-83.5 89t-114 48t-129.5 16t-130 -18t-114.5 -52.5t-83.5 -93t-31 -133.5v-1122h-78z" />
<glyph unicode="&#xe0;" d="M113 328q1 84 33.5 149.5t88 104t124 58t147.5 19.5q165 0 297 -59v164q0 82 -46.5 138.5t-115.5 80t-152 23.5q-150 0 -264 -105q-8 8 -22.5 25.5t-22.5 23.5q119 125 322 125q73 0 139 -19.5t119.5 -57t85 -98t31.5 -136.5v-723q-189 -62 -414 -59q-150 2 -250 97 t-100 249zM184 328q0 -131 79.5 -205t205.5 -76q165 -3 317 35l17 6v442q-154 62 -301 62q-51 0 -96 -8t-86 -27.5t-70.5 -49.5t-47 -75.5t-18.5 -103.5zM350 1350h107l129 -205h-72z" />
<glyph unicode="&#xe1;" d="M113 328q1 84 33.5 149.5t88 104t124 58t147.5 19.5q165 0 297 -59v164q0 82 -46.5 138.5t-115.5 80t-152 23.5q-150 0 -264 -105q-8 8 -22.5 25.5t-22.5 23.5q119 125 322 125q73 0 139 -19.5t119.5 -57t85 -98t31.5 -136.5v-723q-189 -62 -414 -59q-150 2 -250 97 t-100 249zM184 328q0 -131 79.5 -205t205.5 -76q165 -3 317 35l17 6v442q-154 62 -301 62q-51 0 -96 -8t-86 -27.5t-70.5 -49.5t-47 -75.5t-18.5 -103.5zM477 1130l125 226h107l-162 -226h-70z" />
<glyph unicode="&#xe2;" d="M113 328q1 84 33.5 149.5t88 104t124 58t147.5 19.5q165 0 297 -59v164q0 82 -46.5 138.5t-115.5 80t-152 23.5q-150 0 -264 -105q-8 8 -22.5 25.5t-22.5 23.5q119 125 322 125q73 0 139 -19.5t119.5 -57t85 -98t31.5 -136.5v-723q-189 -62 -414 -59q-150 2 -250 97 t-100 249zM184 328q0 -131 79.5 -205t205.5 -76q165 -3 317 35l17 6v442q-154 62 -301 62q-51 0 -96 -8t-86 -27.5t-70.5 -49.5t-47 -75.5t-18.5 -103.5zM291 1130l188 207h86l187 -207h-78l-154 152l-149 -152h-80z" />
<glyph unicode="&#xe3;" d="M113 328q1 84 33.5 149.5t88 104t124 58t147.5 19.5q165 0 297 -59v164q0 82 -46.5 138.5t-115.5 80t-152 23.5q-150 0 -264 -105q-8 8 -22.5 25.5t-22.5 23.5q119 125 322 125q73 0 139 -19.5t119.5 -57t85 -98t31.5 -136.5v-723q-189 -62 -414 -59q-150 2 -250 97 t-100 249zM184 328q0 -131 79.5 -205t205.5 -76q165 -3 317 35l17 6v442q-154 62 -301 62q-51 0 -96 -8t-86 -27.5t-70.5 -49.5t-47 -75.5t-18.5 -103.5zM330 1182q11 45 45 68.5t76 23.5q27 0 82 -25.5t85 -25.5q47 0 72 45l41 -17q-10 -40 -42.5 -67t-67.5 -27 q-32 0 -92 25.5t-89 25.5q-45 0 -69 -49z" />
<glyph unicode="&#xe4;" d="M113 328q1 84 33.5 149.5t88 104t124 58t147.5 19.5q165 0 297 -59v164q0 82 -46.5 138.5t-115.5 80t-152 23.5q-150 0 -264 -105q-8 8 -22.5 25.5t-22.5 23.5q119 125 322 125q73 0 139 -19.5t119.5 -57t85 -98t31.5 -136.5v-723q-189 -62 -414 -59q-150 2 -250 97 t-100 249zM184 328q0 -131 79.5 -205t205.5 -76q165 -3 317 35l17 6v442q-154 62 -301 62q-51 0 -96 -8t-86 -27.5t-70.5 -49.5t-47 -75.5t-18.5 -103.5zM317 1204q0 26 16.5 44t39.5 18t39 -18t16 -44q0 -25 -16 -43t-39 -18t-39.5 18t-16.5 43zM637 1204q0 26 15.5 44 t37.5 18q23 0 39 -18t16 -44q0 -25 -16 -43t-39 -18q-22 0 -37.5 18t-15.5 43z" />
<glyph unicode="&#xe5;" d="M113 328q1 84 33.5 149.5t88 104t124 58t147.5 19.5q165 0 297 -59v164q0 82 -46.5 138.5t-115.5 80t-152 23.5q-150 0 -264 -105q-8 8 -22.5 25.5t-22.5 23.5q119 125 322 125q73 0 139 -19.5t119.5 -57t85 -98t31.5 -136.5v-723q-189 -62 -414 -59q-150 2 -250 97 t-100 249zM184 328q0 -131 79.5 -205t205.5 -76q165 -3 317 35l17 6v442q-154 62 -301 62q-51 0 -96 -8t-86 -27.5t-70.5 -49.5t-47 -75.5t-18.5 -103.5zM352 1284q0 65 52 113.5t124 48.5q71 0 121.5 -50t50.5 -114t-51 -112t-121 -48q-72 0 -124 48t-52 114zM416 1282 q0 -43 32 -73.5t78 -30.5t78.5 32t32.5 74t-32.5 73.5t-78.5 31.5t-78 -32.5t-32 -74.5z" />
<glyph unicode="&#xe6;" horiz-adv-x="1683" d="M113 328q1 84 33.5 150t88 106t124.5 60t147 20q154 0 297 -64l2 180q-5 76 -51.5 129t-113 75t-146.5 22q-149 0 -265 -107q-7 7 -24 25.5t-25 25.5q121 127 318 127q111 0 206.5 -45.5t139.5 -128.5q49 81 141 123.5t199 42.5q72 0 139 -20.5t121.5 -59.5t87.5 -102.5 t33 -141.5v-266h-688v-168q-1 -121 88.5 -184.5t218.5 -63.5q89 0 164.5 34t113.5 100l68 -35q-45 -85 -139.5 -129.5t-206.5 -44.5q-100 0 -187.5 36.5t-138.5 106.5q-70 -69 -181.5 -110t-213.5 -39q-150 2 -250 97t-100 249zM186 328q0 -131 78.5 -204t204.5 -75 q83 -2 187.5 39.5t166.5 106.5q-20 58 -20 116l-2 219q-154 62 -299 62q-65 0 -119 -13.5t-99 -43t-71 -82.5t-27 -125zM877 547h614v203q0 80 -45.5 137.5t-113.5 83.5t-148 26q-129 0 -218.5 -64t-88.5 -183v-203z" />
<glyph unicode="&#xe7;" horiz-adv-x="901" d="M102 309v441q0 78 33 141.5t87.5 102t121.5 59t139 20.5q105 0 195 -39.5t139 -115.5l-59 -39q-40 59 -114 89.5t-161 30.5q-126 0 -216.5 -63.5t-90.5 -181.5v-445q0 -121 90.5 -185.5t216.5 -64.5q95 0 177 41t114 115l68 -33q-41 -89 -135.5 -140t-206.5 -56l-29 -47 q81 18 134 -23t50 -98q-4 -74 -64 -114t-137 -38t-135 37l11 45q56 -22 127 -22q49 0 89 22.5t40 69.5q0 78 -129 78q-45 0 -72 -11l-6 6q56 92 59 97q-67 5 -126.5 28t-106.5 62t-75 98.5t-28 132.5z" />
<glyph unicode="&#xe8;" horiz-adv-x="1005" d="M123 311v434q0 78 33 141.5t87.5 102.5t122 59.5t140.5 20.5q72 0 139 -20.5t121.5 -59.5t87.5 -102.5t33 -141.5v-266h-688v-168q-1 -121 88.5 -184.5t218.5 -63.5q89 0 164.5 34t113.5 100l68 -35q-45 -85 -139.5 -129.5t-206.5 -44.5q-99 0 -184 34.5t-142 109.5 t-57 179zM199 547h614v198v5q0 80 -45.5 137.5t-113.5 83.5t-148 26q-129 0 -218.5 -64t-88.5 -183v-203zM311 1346h117l141 -226h-77z" />
<glyph unicode="&#xe9;" horiz-adv-x="1005" d="M123 311v434q0 78 33 141.5t87.5 102.5t122 59.5t140.5 20.5q72 0 139 -20.5t121.5 -59.5t87.5 -102.5t33 -141.5v-266h-688v-168q-1 -121 88.5 -184.5t218.5 -63.5q89 0 164.5 34t113.5 100l68 -35q-45 -85 -139.5 -129.5t-206.5 -44.5q-99 0 -184 34.5t-142 109.5 t-57 179zM199 547h614v198v5q0 80 -45.5 137.5t-113.5 83.5t-148 26q-129 0 -218.5 -64t-88.5 -183v-203zM442 1122l129 246h113l-170 -246h-72z" />
<glyph unicode="&#xea;" horiz-adv-x="1005" d="M123 311v434q0 78 33 141.5t87.5 102.5t122 59.5t140.5 20.5q72 0 139 -20.5t121.5 -59.5t87.5 -102.5t33 -141.5v-266h-688v-168q-1 -121 88.5 -184.5t218.5 -63.5q89 0 164.5 34t113.5 100l68 -35q-45 -85 -139.5 -129.5t-206.5 -44.5q-99 0 -184 34.5t-142 109.5 t-57 179zM199 547h614v198v5q0 80 -45.5 137.5t-113.5 83.5t-148 26q-129 0 -218.5 -64t-88.5 -183v-203zM268 1104l197 207h88l197 -207h-80l-164 151l-154 -151h-84z" />
<glyph unicode="&#xeb;" horiz-adv-x="1005" d="M123 311v434q0 78 33 141.5t87.5 102.5t122 59.5t140.5 20.5q72 0 139 -20.5t121.5 -59.5t87.5 -102.5t33 -141.5v-266h-688v-168q-1 -121 88.5 -184.5t218.5 -63.5q89 0 164.5 34t113.5 100l68 -35q-45 -85 -139.5 -129.5t-206.5 -44.5q-99 0 -184 34.5t-142 109.5 t-57 179zM199 547h614v198v5q0 80 -45.5 137.5t-113.5 83.5t-148 26q-129 0 -218.5 -64t-88.5 -183v-203zM285 1182q0 25 17 43t40 18t40 -18t17 -43t-17 -42.5t-40 -17.5t-40 17.5t-17 42.5zM618 1182q0 25 17.5 43t40.5 18t40 -18t17 -43t-17 -42.5t-40 -17.5t-40.5 17.5 t-17.5 42.5z" />
<glyph unicode="&#xec;" horiz-adv-x="452" d="M25 1360h116l142 -225h-78zM182 0v1063h78v-1063h-78z" />
<glyph unicode="&#xed;" horiz-adv-x="452" d="M154 1128l129 246h112l-170 -246h-71zM182 0v1061h78v-1061h-78z" />
<glyph unicode="&#xee;" horiz-adv-x="491" d="M25 1112l180 219h76l176 -219h-74l-147 160l-136 -160h-75zM205 0v1061h78v-1061h-78z" />
<glyph unicode="&#xef;" horiz-adv-x="489" d="M51 1255q0 27 18.5 46.5t47.5 19.5q25 0 44 -20t19 -46q0 -27 -19 -46t-44 -19q-29 0 -47.5 18.5t-18.5 46.5zM205 2v1057h82v-1057h-82zM317 1255q0 27 18.5 46.5t45.5 19.5t46 -19.5t19 -46.5q0 -28 -18.5 -46.5t-46.5 -18.5t-46 18.5t-18 46.5z" />
<glyph unicode="&#xf0;" horiz-adv-x="1077" d="M162 303v336q0 100 55 176t140 112.5t182 35.5q157 0 305 -72v248q0 87 -55.5 146t-147.5 89l-51 -166q-14 4 -32.5 11.5t-25.5 9.5l50 157q-109 12 -183 -10t-133 -84l-47 45q66 72 168 101t215 14l45 133q11 -4 31 -9.5t27 -8.5l-41 -127q113 -34 182 -110.5t69 -190.5 v-1098l-98 -31q-97 -28 -287 -28q-149 2 -258.5 87t-109.5 234zM233 303q0 -119 88 -184.5t211 -65.5q87 0 172.5 14t139.5 37v713q-159 70 -309 70q-79 -1 -145.5 -27t-111.5 -83t-45 -136v-338z" />
<glyph unicode="&#xf1;" horiz-adv-x="1089" d="M164 0v1006q220 77 387 77q97 -2 179.5 -37t138 -109.5t55.5 -176.5v-760h-74v760q0 81 -45.5 139t-111.5 83.5t-142 25.5q-82 0 -168 -18t-145 -44v-946h-74zM354 1178q13 47 46 70.5t77 23.5q27 0 82.5 -25.5t85.5 -25.5q50 0 72 45l43 -17q-10 -42 -43.5 -70 t-69.5 -28q-32 0 -91.5 27.5t-88.5 27.5q-46 0 -70 -53z" />
<glyph unicode="&#xf2;" horiz-adv-x="1030" d="M133 309v441q0 78 33 141.5t87.5 102.5t122 59.5t140.5 21.5q73 -1 140 -21.5t121.5 -59.5t87 -102.5t32.5 -141.5v-441q0 -78 -32.5 -141.5t-87 -102.5t-121.5 -59.5t-140 -21.5q-73 1 -140.5 21.5t-122 59.5t-87.5 102.5t-33 141.5zM207 309q0 -63 27 -113t71.5 -79.5 t98.5 -44.5t112 -15q57 0 110 15t98 44.5t72 79.5t27 113v441q0 63 -27 112.5t-72 78.5t-98 43.5t-110 14.5q-80 0 -147.5 -24.5t-114.5 -82.5t-47 -142v-441zM315 1348h117l141 -226h-77z" />
<glyph unicode="&#xf3;" horiz-adv-x="1030" d="M133 309v441q0 78 33 141.5t87.5 102.5t122 59.5t140.5 21.5q73 -1 140 -21.5t121.5 -59.5t87 -102.5t32.5 -141.5v-441q0 -78 -32.5 -141.5t-87 -102.5t-121.5 -59.5t-140 -21.5q-73 1 -140.5 21.5t-122 59.5t-87.5 102.5t-33 141.5zM207 309q0 -63 27 -113t71.5 -79.5 t98.5 -44.5t112 -15q57 0 110 15t98 44.5t72 79.5t27 113v441q0 63 -27 112.5t-72 78.5t-98 43.5t-110 14.5q-80 0 -147.5 -24.5t-114.5 -82.5t-47 -142v-441zM451 1120l129 246h112l-170 -246h-71z" />
<glyph unicode="&#xf4;" horiz-adv-x="1030" d="M133 309v441q0 78 33 141.5t87.5 102.5t122 59.5t140.5 21.5q73 -1 140 -21.5t121.5 -59.5t87 -102.5t32.5 -141.5v-441q0 -78 -32.5 -141.5t-87 -102.5t-121.5 -59.5t-140 -21.5q-73 1 -140.5 21.5t-122 59.5t-87.5 102.5t-33 141.5zM207 309q0 -63 27 -113t71.5 -79.5 t98.5 -44.5t112 -15q57 0 110 15t98 44.5t72 79.5t27 113v441q0 63 -27 112.5t-72 78.5t-98 43.5t-110 14.5q-80 0 -147.5 -24.5t-114.5 -82.5t-47 -142v-441zM270 1120l201 217h90l201 -217h-82l-166 166l-158 -166h-86z" />
<glyph unicode="&#xf5;" horiz-adv-x="1030" d="M133 309v441q0 78 33 141.5t87.5 102.5t122 59.5t140.5 21.5q73 -1 140 -21.5t121.5 -59.5t87 -102.5t32.5 -141.5v-441q0 -78 -32.5 -141.5t-87 -102.5t-121.5 -59.5t-140 -21.5q-73 1 -140.5 21.5t-122 59.5t-87.5 102.5t-33 141.5zM207 309q0 -63 27 -113t71.5 -79.5 t98.5 -44.5t112 -15q57 0 110 15t98 44.5t72 79.5t27 113v441q0 63 -27 112.5t-72 78.5t-98 43.5t-110 14.5q-80 0 -147.5 -24.5t-114.5 -82.5t-47 -142v-441zM311 1165q13 53 46 79t77 26q27 0 83.5 -29t86.5 -29q50 0 72 50l43 -17q-10 -48 -43 -78t-70 -30 q-32 0 -91.5 29.5t-88.5 29.5q-47 0 -72 -57z" />
<glyph unicode="&#xf6;" horiz-adv-x="1030" d="M133 309v441q0 78 33 141.5t87.5 102.5t122 59.5t140.5 21.5q73 -1 140 -21.5t121.5 -59.5t87 -102.5t32.5 -141.5v-441q0 -78 -32.5 -141.5t-87 -102.5t-121.5 -59.5t-140 -21.5q-73 1 -140.5 21.5t-122 59.5t-87.5 102.5t-33 141.5zM207 309q0 -63 27 -113t71.5 -79.5 t98.5 -44.5t112 -15q57 0 110 15t98 44.5t72 79.5t27 113v441q0 63 -27 112.5t-72 78.5t-98 43.5t-110 14.5q-80 0 -147.5 -24.5t-114.5 -82.5t-47 -142v-441zM266 1200q0 26 19 45t45 19t44.5 -19t18.5 -45t-18.5 -44.5t-44.5 -18.5t-45 18.5t-19 44.5zM635 1200 q0 26 18.5 45t44.5 19t45 -19t19 -45t-19 -44.5t-45 -18.5t-44.5 18.5t-18.5 44.5z" />
<glyph unicode="&#xf7;" horiz-adv-x="1081" d="M102 641v78h875v-78h-875zM473 356q0 33 21.5 53.5t54.5 22.5q32 0 54 -22t22 -54t-22 -53.5t-54 -21.5t-54 21.5t-22 53.5zM473 981q0 33 21.5 53.5t54.5 22.5q32 0 54 -22t22 -54t-22 -54t-54 -22t-54 22t-22 54z" />
<glyph unicode="&#xf8;" horiz-adv-x="1019" d="M133 311v441q0 78 33 141.5t87.5 102.5t122 59.5t140.5 21.5q83 -3 168 -30l61 153q14 -5 34 -10.5t30 -9.5l-66 -158q154 -99 154 -270v-441q0 -78 -32.5 -141.5t-87 -102.5t-121.5 -59.5t-140 -21.5q-81 3 -172 32l-59 -141l-58 23l60 143q-154 99 -154 268zM207 311 q0 -116 104 -200l342 868q-80 22 -137 22q-80 0 -147.5 -24.5t-114.5 -82.5t-47 -142v-441zM369 84q83 -25 147 -25q57 0 110 15t98 44.5t72 79.5t27 113v441q0 115 -108 198z" />
<glyph unicode="&#xf9;" horiz-adv-x="1058" d="M152 305v756h73v-756q0 -81 45.5 -139t111.5 -83.5t142 -25.5q82 0 168.5 18.5t145.5 43.5v942h73v-1002q-220 -77 -387 -77q-71 2 -136.5 23t-119 59.5t-85 101t-31.5 139.5zM356 1346h117l141 -226h-77z" />
<glyph unicode="&#xfa;" horiz-adv-x="1058" d="M152 305v756h73v-756q0 -81 45.5 -139t111.5 -83.5t142 -25.5q82 0 168.5 18.5t145.5 43.5v942h73v-1002q-220 -77 -387 -77q-71 2 -136.5 23t-119 59.5t-85 101t-31.5 139.5zM465 1092l129 245h113l-170 -245h-72z" />
<glyph unicode="&#xfb;" horiz-adv-x="1058" d="M152 305v756h73v-756q0 -81 45.5 -139t111.5 -83.5t142 -25.5q82 0 168.5 18.5t145.5 43.5v942h73v-1002q-220 -77 -387 -77q-71 2 -136.5 23t-119 59.5t-85 101t-31.5 139.5zM291 1130l201 224h90l200 -224h-75l-172 177l-166 -177h-78z" />
<glyph unicode="&#xfc;" horiz-adv-x="1058" d="M152 305v756h73v-756q0 -81 45.5 -139t111.5 -83.5t142 -25.5q82 0 168.5 18.5t145.5 43.5v942h73v-1002q-220 -77 -387 -77q-71 2 -136.5 23t-119 59.5t-85 101t-31.5 139.5zM287 1239q0 26 18.5 45t44.5 19t45 -19t19 -45t-19 -44.5t-45 -18.5t-44.5 18.5t-18.5 44.5z M655 1239q0 26 19 45t45 19t44.5 -19t18.5 -45t-18.5 -44.5t-44.5 -18.5t-45 18.5t-19 44.5z" />
<glyph unicode="&#xfd;" horiz-adv-x="1062" d="M150 307v752h73v-752q-1 -118 87.5 -182.5t215.5 -67.5q79 1 144 17.5t153 52.5l13 10v922h71v-1106q0 -78 -32 -140t-85.5 -98.5t-119 -55.5t-138.5 -19q-94 0 -179 29t-142 83l45 45q54 -43 130.5 -66.5t153.5 -21t144.5 26t109.5 80t42 135.5v110q-154 -75 -306 -75 q-98 -1 -183 34.5t-141 110.5t-56 176zM469 1120l129 246h113l-170 -246h-72z" />
<glyph unicode="&#xfe;" horiz-adv-x="1056" d="M162 -381v1829h74v-416q160 41 315 41q97 -1 181 -37t140 -112t56 -179v-434q0 -101 -56 -177t-142 -112.5t-185 -35.5q-183 4 -309 63v-430h-74zM236 129q157 -68 313 -68q125 2 214.5 65.5t88.5 180.5v438q1 120 -86.5 185t-214.5 65q-190 0 -315 -43v-823z" />
<glyph unicode="&#xff;" horiz-adv-x="1062" d="M150 307v752h73v-752q-1 -118 87.5 -182.5t215.5 -67.5q79 1 144 17.5t153 52.5l13 10v922h71v-1106q0 -78 -32 -140t-85.5 -98.5t-119 -55.5t-138.5 -19q-94 0 -179 29t-142 83l45 45q54 -43 130.5 -66.5t153.5 -21t144.5 26t109.5 80t42 135.5v110q-154 -75 -306 -75 q-98 -1 -183 34.5t-141 110.5t-56 176zM293 1257q0 26 18.5 45t44.5 19t45 -19t19 -45t-19 -44.5t-45 -18.5t-44.5 18.5t-18.5 44.5zM662 1257q0 26 18.5 45t44.5 19t44.5 -19t18.5 -45t-18.5 -44.5t-44.5 -18.5t-44.5 18.5t-18.5 44.5z" />
<glyph unicode="&#x152;" horiz-adv-x="1914" d="M141 420v618q0 102 47 184t125 133t175 78.5t202 28.5q71 0 155.5 -22.5t149.5 -65.5v76h826v-74h-746v-614h682v-76h-682v-610h746v-76h-826v68q-152 -79 -315 -76q-104 2 -199.5 30.5t-172 81t-122 134.5t-45.5 182zM221 420q0 -84 40 -151.5t107 -109.5t150.5 -64.5 t173.5 -22.5q162 0 303 75v1158q-153 80 -303 77q-91 0 -173.5 -20.5t-150 -61t-107.5 -108t-40 -154.5v-618z" />
<glyph unicode="&#x153;" horiz-adv-x="1705" d="M133 309v441q0 78 33 141.5t87.5 102.5t122 59.5t140.5 21.5q112 -2 208.5 -52.5t135.5 -143.5q43 94 138 142t206 48q72 0 139 -20.5t121.5 -59.5t87.5 -102.5t33 -141.5v-266h-688v-168q-1 -121 88.5 -184.5t218.5 -63.5q90 0 165.5 34t113.5 100l67 -35 q-45 -85 -139.5 -129.5t-206.5 -44.5q-113 0 -206 46.5t-138 143.5q-44 -100 -136 -146t-208 -48q-73 1 -140.5 21.5t-122 59.5t-87.5 102.5t-33 141.5zM207 309q0 -63 27 -113t71.5 -79.5t98.5 -44.5t112 -15q73 0 137.5 22.5t112.5 75.5t55 128v491q-5 57 -33.5 101.5 t-72.5 70.5t-94.5 39.5t-104.5 13.5q-80 0 -147.5 -24.5t-114.5 -82.5t-47 -142v-441zM897 547h614v203q0 80 -45.5 137.5t-113.5 83.5t-148 26q-129 0 -218.5 -64t-88.5 -183v-203z" />
<glyph unicode="&#x178;" horiz-adv-x="993" d="M-66 1450h93l436 -805l434 805h94l-489 -877v-573h-80v573zM182 1595q0 26 19 45t45 19t44.5 -19t18.5 -45t-18.5 -44.5t-44.5 -18.5t-45 18.5t-19 44.5zM614 1595q0 26 19 45t45 19t44.5 -19t18.5 -45t-18.5 -44.5t-44.5 -18.5t-45 18.5t-19 44.5z" />
<glyph unicode="&#x2c6;" horiz-adv-x="536" d="M16 1227l201 223h90l201 -223h-76l-172 176l-166 -176h-78z" />
<glyph unicode="&#x2dc;" horiz-adv-x="555" d="M39 1348q14 48 52 72t87 24q31 0 94.5 -26.5t98.5 -26.5q55 0 82 47l47 -17q-12 -43 -49 -71.5t-78 -28.5q-37 0 -104.5 27.5t-100.5 27.5q-53 0 -80 -53z" />
<glyph unicode="&#x2000;" horiz-adv-x="933" />
<glyph unicode="&#x2001;" horiz-adv-x="1866" />
<glyph unicode="&#x2002;" horiz-adv-x="933" />
<glyph unicode="&#x2003;" horiz-adv-x="1866" />
<glyph unicode="&#x2004;" horiz-adv-x="622" />
<glyph unicode="&#x2005;" horiz-adv-x="466" />
<glyph unicode="&#x2006;" horiz-adv-x="311" />
<glyph unicode="&#x2007;" horiz-adv-x="311" />
<glyph unicode="&#x2008;" horiz-adv-x="233" />
<glyph unicode="&#x2009;" horiz-adv-x="373" />
<glyph unicode="&#x200a;" horiz-adv-x="103" />
<glyph unicode="&#x2010;" horiz-adv-x="735" d="M78 575v78h579v-78h-579z" />
<glyph unicode="&#x2011;" horiz-adv-x="735" d="M78 575v78h579v-78h-579z" />
<glyph unicode="&#x2012;" horiz-adv-x="735" d="M78 575v78h579v-78h-579z" />
<glyph unicode="&#x2013;" horiz-adv-x="1024" d="M59 575v76h910v-76h-910z" />
<glyph unicode="&#x2014;" horiz-adv-x="1884" d="M45 575v76h1794v-76h-1794z" />
<glyph unicode="&#x2018;" horiz-adv-x="448" d="M125 1061q25 77 72 197.5t71 191.5h74l-115 -389h-102z" />
<glyph unicode="&#x2019;" horiz-adv-x="466" d="M123 1059l117 391h106q-25 -77 -74 -198.5t-73 -192.5h-76z" />
<glyph unicode="&#x201a;" horiz-adv-x="499" d="M102 -262l117 344h105l-144 -344h-78z" />
<glyph unicode="&#x201c;" horiz-adv-x="704" d="M127 1059l133 391h78l-105 -391h-106zM387 1059l133 391h78l-104 -391h-107z" />
<glyph unicode="&#x201d;" horiz-adv-x="788" d="M174 1061l92 389h103l-121 -389h-74zM428 1061l92 389h103l-121 -389h-74z" />
<glyph unicode="&#x201e;" horiz-adv-x="835" d="M143 -262l115 364h107q-25 -70 -72.5 -184t-71.5 -180h-78zM401 -262l115 364h107q-25 -70 -72.5 -184t-71.5 -180h-78z" />
<glyph unicode="&#x2022;" horiz-adv-x="739" d="M123 725q0 92 66.5 158.5t158.5 66.5t158.5 -66.5t66.5 -158.5t-66.5 -158.5t-158.5 -66.5t-158.5 66.5t-66.5 158.5z" />
<glyph unicode="&#x2026;" horiz-adv-x="1437" d="M160 86q0 51 34 85t85 34t84.5 -34t33.5 -85t-33.5 -85t-84.5 -34t-85 34t-34 85zM180 86q0 41 29 69.5t70 28.5t69.5 -28.5t28.5 -69.5t-28.5 -69.5t-69.5 -28.5t-70 28.5t-29 69.5zM201 86q0 -32 23 -55t55 -23t54.5 23t22.5 55t-22.5 55t-54.5 23t-55 -23t-23 -55z M588 86q0 51 34 85t85 34t84.5 -34t33.5 -85t-33.5 -85t-84.5 -34t-85 34t-34 85zM608 86q0 41 29 69.5t70 28.5t69.5 -28.5t28.5 -69.5t-28.5 -69.5t-69.5 -28.5t-70 28.5t-29 69.5zM629 86q0 -32 23 -55t55 -23t54.5 23t22.5 55t-22.5 55t-54.5 23t-55 -23t-23 -55z M1014 86q0 51 34 85t85 34t84.5 -34t33.5 -85t-33.5 -85t-84.5 -34t-85 34t-34 85zM1034 86q0 41 29 69.5t70 28.5t69.5 -28.5t28.5 -69.5t-28.5 -69.5t-69.5 -28.5t-70 28.5t-29 69.5zM1055 86q0 -32 23 -55t55 -23t54.5 23t22.5 55t-22.5 55t-54.5 23t-55 -23t-23 -55z " />
<glyph unicode="&#x202f;" horiz-adv-x="373" />
<glyph unicode="&#x2039;" horiz-adv-x="530" d="M96 604l262 389q14 -8 35 -22t29 -19l-240 -348q10 -15 238 -348q-15 -8 -32.5 -20t-29.5 -19z" />
<glyph unicode="&#x203a;" horiz-adv-x="557" d="M133 256l240 348q-10 15 -238 348q15 8 32.5 20t29.5 19l262 -387l-262 -389q-14 8 -35 22t-29 19z" />
<glyph unicode="&#x205f;" horiz-adv-x="466" />
<glyph unicode="&#x20ac;" horiz-adv-x="1179" d="M51 598l12 66h119v120h-125q4 27 13 66h112v176q0 102 41 184.5t109.5 134.5t153 79.5t176.5 27.5q139 0 257 -59.5t179 -173.5l-74 -37q-51 96 -148 142t-214 46q-105 0 -194.5 -38t-148.5 -118t-59 -188v-176h551q-7 -43 -12 -66h-539v-120h551q-3 -14 -4.5 -36 t-3.5 -30h-543v-176q0 -83 33.5 -149.5t89.5 -108t126 -63t146 -21.5q120 0 219 46.5t150 141.5l74 -37q-61 -114 -181 -173.5t-262 -59.5q-72 0 -140.5 16.5t-129 51.5t-105.5 84.5t-71.5 119.5t-26.5 152v176h-131z" />
<glyph unicode="&#x2122;" horiz-adv-x="1683" d="M45 1391v59h598v-59h-266v-699h-66v699h-266zM782 692v758h92l273 -594q50 112 157.5 346t114.5 248h92v-758h-65l8 694l-274 -598h-66l-272 586q0 -98 2 -340t2 -342h-64z" />
<glyph unicode="&#xe000;" horiz-adv-x="1064" d="M0 0v1065h1065v-1065h-1065z" />
</font>
</defs>
</svg>
